<svg id="svg" version="1.1" xmlns="http://www.w3.org/2000/svg" xmlns:xlink="http://www.w3.org/1999/xlink" width="400" height="400" viewBox="0, 0, 400,400"><g id="svgg"><path id="path0" d="M185.600 17.000 C 185.600 17.501,184.778 17.600,180.600 17.600 C 177.533 17.600,175.600 17.755,175.600 18.000 C 175.600 18.235,174.196 18.400,172.187 18.400 C 169.523 18.400,168.724 18.532,168.545 19.000 C 168.376 19.439,167.684 19.600,165.957 19.600 C 164.652 19.600,163.600 19.779,163.600 20.000 C 163.600 20.222,162.529 20.400,161.187 20.400 C 159.412 20.400,158.714 20.558,158.545 21.000 C 158.383 21.420,157.728 21.600,156.357 21.600 C 155.281 21.600,154.400 21.780,154.400 22.000 C 154.400 22.220,153.584 22.400,152.587 22.400 C 151.345 22.400,150.702 22.589,150.545 23.000 C 150.403 23.370,149.795 23.600,148.957 23.600 C 148.211 23.600,147.600 23.780,147.600 24.000 C 147.600 24.220,146.880 24.400,146.000 24.400 C 144.844 24.400,144.400 24.567,144.400 25.000 C 144.400 25.419,143.978 25.600,143.000 25.600 C 142.230 25.600,141.600 25.780,141.600 26.000 C 141.600 26.220,140.964 26.400,140.187 26.400 C 139.301 26.400,138.689 26.623,138.545 27.000 C 138.403 27.370,137.795 27.600,136.957 27.600 C 136.211 27.600,135.600 27.780,135.600 28.000 C 135.600 28.220,135.150 28.400,134.600 28.400 C 133.978 28.400,133.600 28.627,133.600 29.000 C 133.600 29.433,133.156 29.600,132.000 29.600 C 131.120 29.600,130.400 29.780,130.400 30.000 C 130.400 30.220,130.034 30.400,129.587 30.400 C 129.141 30.400,128.671 30.670,128.545 31.000 C 128.418 31.330,127.884 31.600,127.357 31.600 C 126.831 31.600,126.400 31.780,126.400 32.000 C 126.400 32.220,125.950 32.400,125.400 32.400 C 124.778 32.400,124.400 32.627,124.400 33.000 C 124.400 33.373,124.022 33.600,123.400 33.600 C 122.850 33.600,122.400 33.780,122.400 34.000 C 122.400 34.220,121.770 34.400,121.000 34.400 C 120.022 34.400,119.600 34.581,119.600 35.000 C 119.600 35.373,119.222 35.600,118.600 35.600 C 118.050 35.600,117.600 35.780,117.600 36.000 C 117.600 36.220,117.330 36.400,117.000 36.400 C 116.670 36.400,116.400 36.670,116.400 37.000 C 116.400 37.373,116.022 37.600,115.400 37.600 C 114.850 37.600,114.400 37.780,114.400 38.000 C 114.400 38.220,113.950 38.400,113.400 38.400 C 112.778 38.400,112.400 38.627,112.400 39.000 C 112.400 39.373,112.022 39.600,111.400 39.600 C 110.850 39.600,110.400 39.780,110.400 40.000 C 110.400 40.220,110.065 40.400,109.656 40.400 C 109.247 40.400,108.574 40.850,108.161 41.400 C 107.747 41.951,107.004 42.400,106.505 42.400 C 105.967 42.400,105.600 42.643,105.600 43.000 C 105.600 43.373,105.222 43.600,104.600 43.600 C 104.050 43.600,103.600 43.780,103.600 44.000 C 103.600 44.220,103.330 44.400,103.000 44.400 C 102.670 44.400,102.400 44.670,102.400 45.000 C 102.400 45.340,102.041 45.600,101.571 45.600 C 100.686 45.600,99.600 46.466,99.600 47.171 C 99.600 47.407,99.150 47.600,98.600 47.600 C 98.050 47.600,97.600 47.780,97.600 48.000 C 97.600 48.220,97.330 48.400,97.000 48.400 C 96.670 48.400,96.400 48.670,96.400 49.000 C 96.400 49.340,96.041 49.600,95.571 49.600 C 94.686 49.600,93.600 50.466,93.600 51.171 C 93.600 51.407,93.330 51.600,93.000 51.600 C 92.670 51.600,92.400 51.780,92.400 52.000 C 92.400 52.220,92.065 52.400,91.656 52.400 C 91.247 52.400,90.574 52.850,90.161 53.400 C 89.748 53.950,89.183 54.400,88.905 54.400 C 88.627 54.400,88.400 54.670,88.400 55.000 C 88.400 55.340,88.041 55.600,87.571 55.600 C 86.686 55.600,85.600 56.466,85.600 57.171 C 85.600 57.407,85.407 57.600,85.171 57.600 C 84.618 57.600,83.600 58.618,83.600 59.171 C 83.600 59.407,83.407 59.600,83.171 59.600 C 82.618 59.600,81.600 60.618,81.600 61.171 C 81.600 61.407,81.216 61.600,80.747 61.600 C 80.278 61.600,79.300 62.230,78.574 63.000 C 77.848 63.770,77.062 64.400,76.827 64.400 C 76.592 64.400,76.400 64.593,76.400 64.829 C 76.400 65.382,75.382 66.400,74.829 66.400 C 74.593 66.400,74.400 66.593,74.400 66.829 C 74.400 67.382,73.382 68.400,72.829 68.400 C 72.593 68.400,72.400 68.593,72.400 68.829 C 72.400 69.382,71.382 70.400,70.829 70.400 C 70.593 70.400,70.400 70.593,70.400 70.829 C 70.400 71.382,69.382 72.400,68.829 72.400 C 68.593 72.400,68.400 72.593,68.400 72.829 C 68.400 73.382,67.382 74.400,66.829 74.400 C 66.593 74.400,66.400 74.627,66.400 74.905 C 66.400 75.183,65.950 75.748,65.400 76.161 C 64.850 76.574,64.400 77.247,64.400 77.656 C 64.400 78.065,64.220 78.400,64.000 78.400 C 63.780 78.400,63.600 78.670,63.600 79.000 C 63.600 79.330,63.407 79.600,63.171 79.600 C 62.618 79.600,61.600 80.618,61.600 81.171 C 61.600 81.407,61.407 81.600,61.171 81.600 C 60.466 81.600,59.600 82.686,59.600 83.571 C 59.600 84.041,59.340 84.400,59.000 84.400 C 58.670 84.400,58.400 84.593,58.400 84.829 C 58.400 85.382,57.382 86.400,56.829 86.400 C 56.593 86.400,56.400 86.670,56.400 87.000 C 56.400 87.330,56.220 87.600,56.000 87.600 C 55.780 87.600,55.600 88.050,55.600 88.600 C 55.600 89.150,55.407 89.600,55.171 89.600 C 54.466 89.600,53.600 90.686,53.600 91.571 C 53.600 92.041,53.340 92.400,53.000 92.400 C 52.670 92.400,52.400 92.627,52.400 92.905 C 52.400 93.183,51.950 93.748,51.400 94.161 C 50.850 94.574,50.400 95.247,50.400 95.656 C 50.400 96.065,50.220 96.400,50.000 96.400 C 49.780 96.400,49.600 96.670,49.600 97.000 C 49.600 97.330,49.330 97.600,49.000 97.600 C 48.627 97.600,48.400 97.978,48.400 98.600 C 48.400 99.150,48.220 99.600,48.000 99.600 C 47.780 99.600,47.600 100.050,47.600 100.600 C 47.600 101.150,47.407 101.600,47.171 101.600 C 46.466 101.600,45.600 102.686,45.600 103.571 C 45.600 104.041,45.340 104.400,45.000 104.400 C 44.627 104.400,44.400 104.778,44.400 105.400 C 44.400 105.950,44.220 106.400,44.000 106.400 C 43.780 106.400,43.600 106.670,43.600 107.000 C 43.600 107.330,43.330 107.600,43.000 107.600 C 42.627 107.600,42.400 107.978,42.400 108.600 C 42.400 109.150,42.220 109.600,42.000 109.600 C 41.780 109.600,41.600 110.050,41.600 110.600 C 41.600 111.222,41.373 111.600,41.000 111.600 C 40.627 111.600,40.400 111.978,40.400 112.600 C 40.400 113.150,40.220 113.600,40.000 113.600 C 39.780 113.600,39.600 114.050,39.600 114.600 C 39.600 115.222,39.373 115.600,39.000 115.600 C 38.627 115.600,38.400 115.978,38.400 116.600 C 38.400 117.150,38.220 117.600,38.000 117.600 C 37.780 117.600,37.600 118.050,37.600 118.600 C 37.600 119.222,37.373 119.600,37.000 119.600 C 36.627 119.600,36.400 119.978,36.400 120.600 C 36.400 121.150,36.220 121.600,36.000 121.600 C 35.780 121.600,35.600 122.050,35.600 122.600 C 35.600 123.222,35.373 123.600,35.000 123.600 C 34.627 123.600,34.400 123.978,34.400 124.600 C 34.400 125.150,34.220 125.600,34.000 125.600 C 33.780 125.600,33.600 126.230,33.600 127.000 C 33.600 127.978,33.419 128.400,33.000 128.400 C 32.627 128.400,32.400 128.778,32.400 129.400 C 32.400 129.950,32.220 130.400,32.000 130.400 C 31.780 130.400,31.600 131.120,31.600 132.000 C 31.600 133.156,31.433 133.600,31.000 133.600 C 30.627 133.600,30.400 133.978,30.400 134.600 C 30.400 135.150,30.220 135.600,30.000 135.600 C 29.780 135.600,29.600 136.211,29.600 136.957 C 29.600 137.795,29.370 138.403,29.000 138.545 C 28.623 138.689,28.400 139.301,28.400 140.187 C 28.400 140.964,28.220 141.600,28.000 141.600 C 27.780 141.600,27.600 142.211,27.600 142.957 C 27.600 143.795,27.370 144.403,27.000 144.545 C 26.589 144.702,26.400 145.345,26.400 146.587 C 26.400 147.584,26.220 148.400,26.000 148.400 C 25.780 148.400,25.600 149.120,25.600 150.000 C 25.600 151.156,25.433 151.600,25.000 151.600 C 24.533 151.600,24.400 152.133,24.400 154.000 C 24.400 155.333,24.222 156.400,24.000 156.400 C 23.780 156.400,23.600 157.281,23.600 158.357 C 23.600 159.728,23.420 160.383,23.000 160.545 C 22.545 160.719,22.400 161.456,22.400 163.587 C 22.400 165.196,22.229 166.400,22.000 166.400 C 21.769 166.400,21.600 167.652,21.600 169.357 C 21.600 171.617,21.458 172.369,21.000 172.545 C 20.513 172.732,20.400 173.679,20.400 177.587 C 20.400 180.529,20.245 182.400,20.000 182.400 C 19.740 182.400,19.600 187.667,19.600 197.400 C 19.600 207.133,19.740 212.400,20.000 212.400 C 20.245 212.400,20.400 214.333,20.400 217.400 C 20.400 221.578,20.499 222.400,21.000 222.400 C 21.480 222.400,21.600 223.000,21.600 225.400 C 21.600 227.133,21.769 228.400,22.000 228.400 C 22.231 228.400,22.400 229.667,22.400 231.400 C 22.400 233.800,22.520 234.400,23.000 234.400 C 23.453 234.400,23.600 234.889,23.600 236.400 C 23.600 237.500,23.780 238.400,24.000 238.400 C 24.222 238.400,24.400 239.471,24.400 240.813 C 24.400 242.588,24.558 243.286,25.000 243.455 C 25.370 243.597,25.600 244.205,25.600 245.043 C 25.600 245.789,25.780 246.400,26.000 246.400 C 26.220 246.400,26.400 247.300,26.400 248.400 C 26.400 249.911,26.547 250.400,27.000 250.400 C 27.433 250.400,27.600 250.844,27.600 252.000 C 27.600 252.880,27.780 253.600,28.000 253.600 C 28.220 253.600,28.400 254.230,28.400 255.000 C 28.400 255.978,28.581 256.400,29.000 256.400 C 29.433 256.400,29.600 256.844,29.600 258.000 C 29.600 258.880,29.780 259.600,30.000 259.600 C 30.220 259.600,30.400 260.050,30.400 260.600 C 30.400 261.222,30.627 261.600,31.000 261.600 C 31.419 261.600,31.600 262.022,31.600 263.000 C 31.600 263.770,31.780 264.400,32.000 264.400 C 32.220 264.400,32.400 264.850,32.400 265.400 C 32.400 266.022,32.627 266.400,33.000 266.400 C 33.433 266.400,33.600 266.844,33.600 268.000 C 33.600 268.880,33.780 269.600,34.000 269.600 C 34.220 269.600,34.400 269.966,34.400 270.413 C 34.400 270.859,34.670 271.329,35.000 271.455 C 35.330 271.582,35.600 272.116,35.600 272.643 C 35.600 273.169,35.780 273.600,36.000 273.600 C 36.220 273.600,36.400 274.050,36.400 274.600 C 36.400 275.222,36.627 275.600,37.000 275.600 C 37.373 275.600,37.600 275.978,37.600 276.600 C 37.600 277.150,37.780 277.600,38.000 277.600 C 38.220 277.600,38.400 278.050,38.400 278.600 C 38.400 279.222,38.627 279.600,39.000 279.600 C 39.373 279.600,39.600 279.978,39.600 280.600 C 39.600 281.150,39.780 281.600,40.000 281.600 C 40.220 281.600,40.400 282.050,40.400 282.600 C 40.400 283.222,40.627 283.600,41.000 283.600 C 41.373 283.600,41.600 283.978,41.600 284.600 C 41.600 285.150,41.780 285.600,42.000 285.600 C 42.220 285.600,42.400 285.935,42.400 286.344 C 42.400 286.753,42.850 287.426,43.400 287.839 C 43.951 288.253,44.400 288.996,44.400 289.495 C 44.400 290.033,44.643 290.400,45.000 290.400 C 45.373 290.400,45.600 290.778,45.600 291.400 C 45.600 291.950,45.780 292.400,46.000 292.400 C 46.220 292.400,46.400 292.670,46.400 293.000 C 46.400 293.330,46.670 293.600,47.000 293.600 C 47.373 293.600,47.600 293.978,47.600 294.600 C 47.600 295.150,47.780 295.600,48.000 295.600 C 48.220 295.600,48.400 295.935,48.400 296.344 C 48.400 296.753,48.850 297.426,49.400 297.839 C 49.951 298.253,50.400 298.996,50.400 299.495 C 50.400 300.033,50.643 300.400,51.000 300.400 C 51.330 300.400,51.600 300.593,51.600 300.829 C 51.600 301.382,52.618 302.400,53.171 302.400 C 53.407 302.400,53.600 302.850,53.600 303.400 C 53.600 303.950,53.780 304.400,54.000 304.400 C 54.220 304.400,54.400 304.670,54.400 305.000 C 54.400 305.330,54.670 305.600,55.000 305.600 C 55.340 305.600,55.600 305.959,55.600 306.429 C 55.600 307.314,56.466 308.400,57.171 308.400 C 57.407 308.400,57.600 308.593,57.600 308.829 C 57.600 309.382,58.618 310.400,59.171 310.400 C 59.407 310.400,59.600 310.850,59.600 311.400 C 59.600 311.950,59.780 312.400,60.000 312.400 C 60.220 312.400,60.400 312.670,60.400 313.000 C 60.400 313.330,60.593 313.600,60.829 313.600 C 61.382 313.600,62.400 314.618,62.400 315.171 C 62.400 315.407,62.593 315.600,62.829 315.600 C 63.534 315.600,64.400 316.686,64.400 317.571 C 64.400 318.041,64.660 318.400,65.000 318.400 C 65.330 318.400,65.600 318.593,65.600 318.829 C 65.600 319.382,66.618 320.400,67.171 320.400 C 67.407 320.400,67.600 320.593,67.600 320.829 C 67.600 321.382,68.618 322.400,69.171 322.400 C 69.407 322.400,69.600 322.593,69.600 322.829 C 69.600 323.382,70.618 324.400,71.171 324.400 C 71.407 324.400,71.600 324.593,71.600 324.829 C 71.600 325.382,72.618 326.400,73.171 326.400 C 73.407 326.400,73.600 326.593,73.600 326.829 C 73.600 327.382,74.618 328.400,75.171 328.400 C 75.407 328.400,75.600 328.593,75.600 328.829 C 75.600 329.382,76.618 330.400,77.171 330.400 C 77.407 330.400,77.600 330.593,77.600 330.829 C 77.600 331.382,78.618 332.400,79.171 332.400 C 79.407 332.400,79.600 332.670,79.600 333.000 C 79.600 333.340,79.959 333.600,80.429 333.600 C 81.314 333.600,82.400 334.466,82.400 335.171 C 82.400 335.407,82.593 335.600,82.829 335.600 C 83.382 335.600,84.400 336.618,84.400 337.171 C 84.400 337.407,84.627 337.600,84.905 337.600 C 85.183 337.600,85.748 338.050,86.161 338.600 C 86.574 339.150,87.247 339.600,87.656 339.600 C 88.065 339.600,88.400 339.780,88.400 340.000 C 88.400 340.220,88.670 340.400,89.000 340.400 C 89.330 340.400,89.600 340.593,89.600 340.829 C 89.600 341.534,90.686 342.400,91.571 342.400 C 92.041 342.400,92.400 342.660,92.400 343.000 C 92.400 343.330,92.627 343.600,92.905 343.600 C 93.183 343.600,93.748 344.050,94.161 344.600 C 94.574 345.150,95.247 345.600,95.656 345.600 C 96.065 345.600,96.400 345.780,96.400 346.000 C 96.400 346.220,96.670 346.400,97.000 346.400 C 97.330 346.400,97.600 346.670,97.600 347.000 C 97.600 347.357,97.967 347.600,98.505 347.600 C 99.004 347.600,99.747 348.049,100.161 348.600 C 100.574 349.150,101.247 349.600,101.656 349.600 C 102.065 349.600,102.400 349.780,102.400 350.000 C 102.400 350.220,102.670 350.400,103.000 350.400 C 103.330 350.400,103.600 350.670,103.600 351.000 C 103.600 351.373,103.978 351.600,104.600 351.600 C 105.150 351.600,105.600 351.780,105.600 352.000 C 105.600 352.220,106.050 352.400,106.600 352.400 C 107.150 352.400,107.600 352.593,107.600 352.829 C 107.600 353.521,108.679 354.400,109.529 354.400 C 109.961 354.400,110.418 354.670,110.545 355.000 C 110.671 355.330,111.141 355.600,111.587 355.600 C 112.034 355.600,112.400 355.780,112.400 356.000 C 112.400 356.220,112.850 356.400,113.400 356.400 C 114.022 356.400,114.400 356.627,114.400 357.000 C 114.400 357.373,114.778 357.600,115.400 357.600 C 115.950 357.600,116.400 357.780,116.400 358.000 C 116.400 358.220,116.670 358.400,117.000 358.400 C 117.330 358.400,117.600 358.670,117.600 359.000 C 117.600 359.373,117.978 359.600,118.600 359.600 C 119.150 359.600,119.600 359.780,119.600 360.000 C 119.600 360.220,120.230 360.400,121.000 360.400 C 121.978 360.400,122.400 360.581,122.400 361.000 C 122.400 361.373,122.778 361.600,123.400 361.600 C 123.950 361.600,124.400 361.780,124.400 362.000 C 124.400 362.220,124.850 362.400,125.400 362.400 C 126.022 362.400,126.400 362.627,126.400 363.000 C 126.400 363.373,126.778 363.600,127.400 363.600 C 127.950 363.600,128.400 363.780,128.400 364.000 C 128.400 364.220,128.831 364.400,129.357 364.400 C 129.884 364.400,130.418 364.670,130.545 365.000 C 130.689 365.377,131.301 365.600,132.187 365.600 C 132.964 365.600,133.600 365.780,133.600 366.000 C 133.600 366.220,134.050 366.400,134.600 366.400 C 135.222 366.400,135.600 366.627,135.600 367.000 C 135.600 367.419,136.022 367.600,137.000 367.600 C 137.770 367.600,138.400 367.780,138.400 368.000 C 138.400 368.220,139.120 368.400,140.000 368.400 C 141.156 368.400,141.600 368.567,141.600 369.000 C 141.600 369.419,142.022 369.600,143.000 369.600 C 143.770 369.600,144.400 369.780,144.400 370.000 C 144.400 370.220,145.120 370.400,146.000 370.400 C 147.156 370.400,147.600 370.567,147.600 371.000 C 147.600 371.419,148.022 371.600,149.000 371.600 C 149.770 371.600,150.400 371.780,150.400 372.000 C 150.400 372.220,151.281 372.400,152.357 372.400 C 153.728 372.400,154.383 372.580,154.545 373.000 C 154.702 373.411,155.345 373.600,156.587 373.600 C 157.584 373.600,158.400 373.780,158.400 374.000 C 158.400 374.226,159.533 374.400,161.000 374.400 C 163.044 374.400,163.600 374.528,163.600 375.000 C 163.600 375.467,164.133 375.600,166.000 375.600 C 167.333 375.600,168.400 375.778,168.400 376.000 C 168.400 376.237,169.867 376.400,172.000 376.400 C 174.933 376.400,175.600 376.511,175.600 377.000 C 175.600 377.501,176.422 377.600,180.600 377.600 C 183.667 377.600,185.600 377.755,185.600 378.000 C 185.600 378.260,191.000 378.400,201.000 378.400 C 211.000 378.400,216.400 378.260,216.400 378.000 C 216.400 377.753,218.471 377.600,221.813 377.600 C 226.255 377.600,227.266 377.492,227.455 377.000 C 227.635 376.533,228.428 376.400,231.043 376.400 C 233.014 376.400,234.400 376.235,234.400 376.000 C 234.400 375.769,235.667 375.600,237.400 375.600 C 239.800 375.600,240.400 375.480,240.400 375.000 C 240.400 374.547,240.889 374.400,242.400 374.400 C 243.500 374.400,244.400 374.220,244.400 374.000 C 244.400 373.778,245.471 373.600,246.813 373.600 C 248.588 373.600,249.286 373.442,249.455 373.000 C 249.617 372.580,250.272 372.400,251.643 372.400 C 252.719 372.400,253.600 372.220,253.600 372.000 C 253.600 371.780,254.230 371.600,255.000 371.600 C 255.978 371.600,256.400 371.419,256.400 371.000 C 256.400 370.567,256.844 370.400,258.000 370.400 C 258.880 370.400,259.600 370.220,259.600 370.000 C 259.600 369.780,260.230 369.600,261.000 369.600 C 261.978 369.600,262.400 369.419,262.400 369.000 C 262.400 368.567,262.844 368.400,264.000 368.400 C 264.880 368.400,265.600 368.220,265.600 368.000 C 265.600 367.780,266.230 367.600,267.000 367.600 C 267.978 367.600,268.400 367.419,268.400 367.000 C 268.400 366.567,268.844 366.400,270.000 366.400 C 270.880 366.400,271.600 366.220,271.600 366.000 C 271.600 365.780,272.050 365.600,272.600 365.600 C 273.222 365.600,273.600 365.373,273.600 365.000 C 273.600 364.627,273.978 364.400,274.600 364.400 C 275.150 364.400,275.600 364.220,275.600 364.000 C 275.600 363.780,276.230 363.600,277.000 363.600 C 277.978 363.600,278.400 363.419,278.400 363.000 C 278.400 362.627,278.778 362.400,279.400 362.400 C 279.950 362.400,280.400 362.220,280.400 362.000 C 280.400 361.780,280.850 361.600,281.400 361.600 C 282.022 361.600,282.400 361.373,282.400 361.000 C 282.400 360.627,282.778 360.400,283.400 360.400 C 283.950 360.400,284.400 360.220,284.400 360.000 C 284.400 359.780,284.850 359.600,285.400 359.600 C 286.022 359.600,286.400 359.373,286.400 359.000 C 286.400 358.627,286.778 358.400,287.400 358.400 C 287.950 358.400,288.400 358.220,288.400 358.000 C 288.400 357.780,288.850 357.600,289.400 357.600 C 290.022 357.600,290.400 357.373,290.400 357.000 C 290.400 356.670,290.670 356.400,291.000 356.400 C 291.330 356.400,291.600 356.220,291.600 356.000 C 291.600 355.780,292.050 355.600,292.600 355.600 C 293.222 355.600,293.600 355.373,293.600 355.000 C 293.600 354.627,293.978 354.400,294.600 354.400 C 295.150 354.400,295.600 354.220,295.600 354.000 C 295.600 353.780,295.935 353.600,296.344 353.600 C 296.753 353.600,297.426 353.150,297.839 352.600 C 298.253 352.049,298.996 351.600,299.495 351.600 C 300.033 351.600,300.400 351.357,300.400 351.000 C 300.400 350.670,300.670 350.400,301.000 350.400 C 301.330 350.400,301.600 350.220,301.600 350.000 C 301.600 349.780,301.935 349.600,302.344 349.600 C 302.753 349.600,303.426 349.150,303.839 348.600 C 304.253 348.049,304.996 347.600,305.495 347.600 C 306.033 347.600,306.400 347.357,306.400 347.000 C 306.400 346.670,306.593 346.400,306.829 346.400 C 307.382 346.400,308.400 345.382,308.400 344.829 C 308.400 344.593,308.850 344.400,309.400 344.400 C 309.950 344.400,310.400 344.220,310.400 344.000 C 310.400 343.780,310.670 343.600,311.000 343.600 C 311.330 343.600,311.600 343.407,311.600 343.171 C 311.600 342.618,312.618 341.600,313.171 341.600 C 313.407 341.600,313.600 341.330,313.600 341.000 C 313.600 340.660,313.959 340.400,314.429 340.400 C 315.314 340.400,316.400 339.534,316.400 338.829 C 316.400 338.593,316.593 338.400,316.829 338.400 C 317.382 338.400,318.400 337.382,318.400 336.829 C 318.400 336.593,318.593 336.400,318.829 336.400 C 319.382 336.400,320.400 335.382,320.400 334.829 C 320.400 334.593,320.593 334.400,320.829 334.400 C 321.382 334.400,322.400 333.382,322.400 332.829 C 322.400 332.593,322.593 332.400,322.829 332.400 C 323.382 332.400,324.400 331.382,324.400 330.829 C 324.400 330.593,324.593 330.400,324.829 330.400 C 325.382 330.400,326.400 329.382,326.400 328.829 C 326.400 328.593,326.593 328.400,326.829 328.400 C 327.382 328.400,328.400 327.382,328.400 326.829 C 328.400 326.593,328.593 326.400,328.829 326.400 C 329.382 326.400,330.400 325.382,330.400 324.829 C 330.400 324.593,330.593 324.400,330.829 324.400 C 331.382 324.400,332.400 323.382,332.400 322.829 C 332.400 322.593,332.593 322.400,332.829 322.400 C 333.382 322.400,334.400 321.382,334.400 320.829 C 334.400 320.593,334.670 320.400,335.000 320.400 C 335.340 320.400,335.600 320.041,335.600 319.571 C 335.600 318.686,336.466 317.600,337.171 317.600 C 337.407 317.600,337.600 317.330,337.600 317.000 C 337.600 316.670,337.780 316.400,338.000 316.400 C 338.220 316.400,338.400 315.950,338.400 315.400 C 338.400 314.850,338.593 314.400,338.829 314.400 C 339.382 314.400,340.400 313.382,340.400 312.829 C 340.400 312.593,340.670 312.400,341.000 312.400 C 341.340 312.400,341.600 312.041,341.600 311.571 C 341.600 310.686,342.466 309.600,343.171 309.600 C 343.407 309.600,343.600 309.330,343.600 309.000 C 343.600 308.670,343.780 308.400,344.000 308.400 C 344.220 308.400,344.400 307.950,344.400 307.400 C 344.400 306.850,344.593 306.400,344.829 306.400 C 345.534 306.400,346.400 305.314,346.400 304.429 C 346.400 303.959,346.660 303.600,347.000 303.600 C 347.373 303.600,347.600 303.222,347.600 302.600 C 347.600 302.050,347.780 301.600,348.000 301.600 C 348.220 301.600,348.400 301.330,348.400 301.000 C 348.400 300.670,348.670 300.400,349.000 300.400 C 349.373 300.400,349.600 300.022,349.600 299.400 C 349.600 298.850,349.780 298.400,350.000 298.400 C 350.220 298.400,350.400 297.950,350.400 297.400 C 350.400 296.778,350.627 296.400,351.000 296.400 C 351.357 296.400,351.600 296.033,351.600 295.495 C 351.600 294.996,352.049 294.253,352.600 293.839 C 353.150 293.426,353.600 292.753,353.600 292.344 C 353.600 291.935,353.780 291.600,354.000 291.600 C 354.220 291.600,354.400 291.169,354.400 290.643 C 354.400 290.116,354.670 289.582,355.000 289.455 C 355.330 289.329,355.600 288.859,355.600 288.413 C 355.600 287.966,355.780 287.600,356.000 287.600 C 356.220 287.600,356.400 287.169,356.400 286.643 C 356.400 286.116,356.670 285.582,357.000 285.455 C 357.377 285.311,357.600 284.699,357.600 283.813 C 357.600 283.036,357.780 282.400,358.000 282.400 C 358.220 282.400,358.400 281.950,358.400 281.400 C 358.400 280.778,358.627 280.400,359.000 280.400 C 359.373 280.400,359.600 280.022,359.600 279.400 C 359.600 278.850,359.780 278.400,360.000 278.400 C 360.220 278.400,360.400 277.770,360.400 277.000 C 360.400 276.022,360.581 275.600,361.000 275.600 C 361.373 275.600,361.600 275.222,361.600 274.600 C 361.600 274.050,361.780 273.600,362.000 273.600 C 362.220 273.600,362.400 272.880,362.400 272.000 C 362.400 270.844,362.567 270.400,363.000 270.400 C 363.419 270.400,363.600 269.978,363.600 269.000 C 363.600 268.230,363.780 267.600,364.000 267.600 C 364.220 267.600,364.400 266.880,364.400 266.000 C 364.400 264.844,364.567 264.400,365.000 264.400 C 365.419 264.400,365.600 263.978,365.600 263.000 C 365.600 262.230,365.780 261.600,366.000 261.600 C 366.220 261.600,366.400 260.880,366.400 260.000 C 366.400 258.844,366.567 258.400,367.000 258.400 C 367.453 258.400,367.600 257.911,367.600 256.400 C 367.600 255.300,367.780 254.400,368.000 254.400 C 368.220 254.400,368.400 253.500,368.400 252.400 C 368.400 250.889,368.547 250.400,369.000 250.400 C 369.453 250.400,369.600 249.911,369.600 248.400 C 369.600 247.300,369.780 246.400,370.000 246.400 C 370.222 246.400,370.400 245.333,370.400 244.000 C 370.400 242.133,370.533 241.600,371.000 241.600 C 371.480 241.600,371.600 241.000,371.600 238.600 C 371.600 236.867,371.769 235.600,372.000 235.600 C 372.237 235.600,372.400 234.133,372.400 232.000 C 372.400 229.067,372.511 228.400,373.000 228.400 C 373.504 228.400,373.600 227.533,373.600 223.000 C 373.600 219.667,373.753 217.600,374.000 217.600 C 374.259 217.600,374.400 212.467,374.400 203.000 C 374.400 193.533,374.259 188.400,374.000 188.400 C 373.758 188.400,373.600 186.667,373.600 184.000 C 373.600 180.356,373.497 179.600,373.000 179.600 C 372.511 179.600,372.400 178.933,372.400 176.000 C 372.400 173.867,372.237 172.400,372.000 172.400 C 371.780 172.400,371.600 171.950,371.600 171.400 L 371.600 170.400 285.600 170.400 L 199.600 170.400 199.600 202.400 L 199.600 234.400 250.600 234.400 L 301.600 234.400 301.600 235.400 C 301.600 236.022,301.373 236.400,301.000 236.400 C 300.547 236.400,300.400 236.889,300.400 238.400 C 300.400 239.500,300.220 240.400,300.000 240.400 C 299.780 240.400,299.600 241.120,299.600 242.000 C 299.600 243.156,299.433 243.600,299.000 243.600 C 298.581 243.600,298.400 244.022,298.400 245.000 C 298.400 245.770,298.220 246.400,298.000 246.400 C 297.780 246.400,297.600 246.831,297.600 247.357 C 297.600 247.884,297.330 248.418,297.000 248.545 C 296.623 248.689,296.400 249.301,296.400 250.187 C 296.400 250.964,296.220 251.600,296.000 251.600 C 295.780 251.600,295.600 252.050,295.600 252.600 C 295.600 253.222,295.373 253.600,295.000 253.600 C 294.627 253.600,294.400 253.978,294.400 254.600 C 294.400 255.150,294.220 255.600,294.000 255.600 C 293.780 255.600,293.600 256.050,293.600 256.600 C 293.600 257.222,293.373 257.600,293.000 257.600 C 292.627 257.600,292.400 257.978,292.400 258.600 C 292.400 259.150,292.220 259.600,292.000 259.600 C 291.780 259.600,291.600 260.050,291.600 260.600 C 291.600 261.222,291.373 261.600,291.000 261.600 C 290.643 261.600,290.400 261.967,290.400 262.505 C 290.400 263.004,289.951 263.747,289.400 264.161 C 288.850 264.574,288.400 265.247,288.400 265.656 C 288.400 266.065,288.220 266.400,288.000 266.400 C 287.780 266.400,287.600 266.670,287.600 267.000 C 287.600 267.330,287.330 267.600,287.000 267.600 C 286.643 267.600,286.400 267.967,286.400 268.505 C 286.400 269.004,285.951 269.747,285.400 270.161 C 284.850 270.574,284.400 271.247,284.400 271.656 C 284.400 272.065,284.220 272.400,284.000 272.400 C 283.780 272.400,283.600 272.670,283.600 273.000 C 283.600 273.330,283.407 273.600,283.171 273.600 C 282.618 273.600,281.600 274.618,281.600 275.171 C 281.600 275.407,281.407 275.600,281.171 275.600 C 280.618 275.600,279.600 276.618,279.600 277.171 C 279.600 277.407,279.407 277.600,279.171 277.600 C 278.466 277.600,277.600 278.686,277.600 279.571 C 277.600 280.041,277.340 280.400,277.000 280.400 C 276.670 280.400,276.400 280.593,276.400 280.829 C 276.400 281.534,275.314 282.400,274.429 282.400 C 273.959 282.400,273.600 282.660,273.600 283.000 C 273.600 283.330,273.407 283.600,273.171 283.600 C 272.618 283.600,271.600 284.618,271.600 285.171 C 271.600 285.407,271.407 285.600,271.171 285.600 C 270.618 285.600,269.600 286.618,269.600 287.171 C 269.600 287.407,269.330 287.600,269.000 287.600 C 268.670 287.600,268.400 287.780,268.400 288.000 C 268.400 288.220,268.065 288.400,267.656 288.400 C 267.247 288.400,266.574 288.850,266.161 289.400 C 265.748 289.950,265.183 290.400,264.905 290.400 C 264.627 290.400,264.400 290.670,264.400 291.000 C 264.400 291.340,264.041 291.600,263.571 291.600 C 262.686 291.600,261.600 292.466,261.600 293.171 C 261.600 293.407,261.150 293.600,260.600 293.600 C 260.050 293.600,259.600 293.780,259.600 294.000 C 259.600 294.220,259.150 294.400,258.600 294.400 C 257.978 294.400,257.600 294.627,257.600 295.000 C 257.600 295.330,257.330 295.600,257.000 295.600 C 256.670 295.600,256.400 295.780,256.400 296.000 C 256.400 296.220,255.950 296.400,255.400 296.400 C 254.778 296.400,254.400 296.627,254.400 297.000 C 254.400 297.373,254.022 297.600,253.400 297.600 C 252.850 297.600,252.400 297.780,252.400 298.000 C 252.400 298.220,252.034 298.400,251.587 298.400 C 251.141 298.400,250.671 298.670,250.545 299.000 C 250.418 299.330,249.884 299.600,249.357 299.600 C 248.831 299.600,248.400 299.780,248.400 300.000 C 248.400 300.220,247.950 300.400,247.400 300.400 C 246.778 300.400,246.400 300.627,246.400 301.000 C 246.400 301.373,246.022 301.600,245.400 301.600 C 244.850 301.600,244.400 301.780,244.400 302.000 C 244.400 302.220,243.770 302.400,243.000 302.400 C 242.022 302.400,241.600 302.581,241.600 303.000 C 241.600 303.373,241.222 303.600,240.600 303.600 C 240.050 303.600,239.600 303.780,239.600 304.000 C 239.600 304.220,238.880 304.400,238.000 304.400 C 236.844 304.400,236.400 304.567,236.400 305.000 C 236.400 305.453,235.911 305.600,234.400 305.600 C 233.300 305.600,232.400 305.780,232.400 306.000 C 232.400 306.220,231.584 306.400,230.587 306.400 C 229.345 306.400,228.702 306.589,228.545 307.000 C 228.376 307.439,227.684 307.600,225.957 307.600 C 224.652 307.600,223.600 307.779,223.600 308.000 C 223.600 308.231,222.333 308.400,220.600 308.400 C 218.200 308.400,217.600 308.520,217.600 309.000 C 217.600 309.510,216.556 309.600,210.600 309.600 C 206.200 309.600,203.600 309.749,203.600 310.000 C 203.600 310.231,202.333 310.400,200.600 310.400 C 198.867 310.400,197.600 310.231,197.600 310.000 C 197.600 309.752,195.467 309.600,192.000 309.600 C 187.289 309.600,186.400 309.505,186.400 309.000 C 186.400 308.520,185.800 308.400,183.400 308.400 C 181.667 308.400,180.400 308.231,180.400 308.000 C 180.400 307.778,179.333 307.600,178.000 307.600 C 176.133 307.600,175.600 307.467,175.600 307.000 C 175.600 306.547,175.111 306.400,173.600 306.400 C 172.500 306.400,171.600 306.220,171.600 306.000 C 171.600 305.780,170.880 305.600,170.000 305.600 C 168.844 305.600,168.400 305.433,168.400 305.000 C 168.400 304.581,167.978 304.400,167.000 304.400 C 166.230 304.400,165.600 304.220,165.600 304.000 C 165.600 303.780,164.880 303.600,164.000 303.600 C 162.844 303.600,162.400 303.433,162.400 303.000 C 162.400 302.627,162.022 302.400,161.400 302.400 C 160.850 302.400,160.400 302.220,160.400 302.000 C 160.400 301.780,159.950 301.600,159.400 301.600 C 158.778 301.600,158.400 301.373,158.400 301.000 C 158.400 300.581,157.978 300.400,157.000 300.400 C 156.230 300.400,155.600 300.220,155.600 300.000 C 155.600 299.780,155.150 299.600,154.600 299.600 C 153.978 299.600,153.600 299.373,153.600 299.000 C 153.600 298.627,153.222 298.400,152.600 298.400 C 152.050 298.400,151.600 298.220,151.600 298.000 C 151.600 297.780,151.150 297.600,150.600 297.600 C 149.978 297.600,149.600 297.373,149.600 297.000 C 149.600 296.670,149.330 296.400,149.000 296.400 C 148.670 296.400,148.400 296.220,148.400 296.000 C 148.400 295.780,147.950 295.600,147.400 295.600 C 146.778 295.600,146.400 295.373,146.400 295.000 C 146.400 294.627,146.022 294.400,145.400 294.400 C 144.850 294.400,144.400 294.220,144.400 294.000 C 144.400 293.780,143.950 293.600,143.400 293.600 C 142.850 293.600,142.400 293.407,142.400 293.171 C 142.400 292.466,141.314 291.600,140.429 291.600 C 139.959 291.600,139.600 291.340,139.600 291.000 C 139.600 290.670,139.373 290.400,139.095 290.400 C 138.817 290.400,138.252 289.950,137.839 289.400 C 137.426 288.850,136.753 288.400,136.344 288.400 C 135.935 288.400,135.600 288.220,135.600 288.000 C 135.600 287.780,135.330 287.600,135.000 287.600 C 134.670 287.600,134.400 287.407,134.400 287.171 C 134.400 286.466,133.314 285.600,132.429 285.600 C 131.959 285.600,131.600 285.340,131.600 285.000 C 131.600 284.670,131.407 284.400,131.171 284.400 C 130.618 284.400,129.600 283.382,129.600 282.829 C 129.600 282.593,129.408 282.400,129.173 282.400 C 128.938 282.400,128.152 281.770,127.426 281.000 C 126.700 280.230,125.722 279.600,125.253 279.600 C 124.784 279.600,124.400 279.407,124.400 279.171 C 124.400 278.618,123.382 277.600,122.829 277.600 C 122.593 277.600,122.400 277.407,122.400 277.171 C 122.400 276.618,121.382 275.600,120.829 275.600 C 120.593 275.600,120.400 275.216,120.400 274.747 C 120.400 274.278,119.770 273.300,119.000 272.574 C 118.230 271.848,117.600 271.062,117.600 270.827 C 117.600 270.592,117.407 270.400,117.171 270.400 C 116.618 270.400,115.600 269.382,115.600 268.829 C 115.600 268.593,115.330 268.400,115.000 268.400 C 114.660 268.400,114.400 268.041,114.400 267.571 C 114.400 266.686,113.534 265.600,112.829 265.600 C 112.593 265.600,112.400 265.330,112.400 265.000 C 112.400 264.670,112.220 264.400,112.000 264.400 C 111.780 264.400,111.600 264.065,111.600 263.656 C 111.600 263.247,111.150 262.574,110.600 262.161 C 110.049 261.747,109.600 261.004,109.600 260.505 C 109.600 259.967,109.357 259.600,109.000 259.600 C 108.670 259.600,108.400 259.330,108.400 259.000 C 108.400 258.670,108.220 258.400,108.000 258.400 C 107.780 258.400,107.600 258.065,107.600 257.656 C 107.600 257.247,107.150 256.574,106.600 256.161 C 106.049 255.747,105.600 255.004,105.600 254.505 C 105.600 253.967,105.357 253.600,105.000 253.600 C 104.627 253.600,104.400 253.222,104.400 252.600 C 104.400 252.050,104.220 251.600,104.000 251.600 C 103.780 251.600,103.600 251.150,103.600 250.600 C 103.600 249.978,103.373 249.600,103.000 249.600 C 102.627 249.600,102.400 249.222,102.400 248.600 C 102.400 248.050,102.220 247.600,102.000 247.600 C 101.780 247.600,101.600 247.150,101.600 246.600 C 101.600 245.978,101.373 245.600,101.000 245.600 C 100.627 245.600,100.400 245.222,100.400 244.600 C 100.400 244.050,100.220 243.600,100.000 243.600 C 99.780 243.600,99.600 243.150,99.600 242.600 C 99.600 241.978,99.373 241.600,99.000 241.600 C 98.567 241.600,98.400 241.156,98.400 240.000 C 98.400 239.120,98.220 238.400,98.000 238.400 C 97.780 238.400,97.600 237.950,97.600 237.400 C 97.600 236.778,97.373 236.400,97.000 236.400 C 96.581 236.400,96.400 235.978,96.400 235.000 C 96.400 234.230,96.220 233.600,96.000 233.600 C 95.780 233.600,95.600 232.880,95.600 232.000 C 95.600 230.844,95.433 230.400,95.000 230.400 C 94.547 230.400,94.400 229.911,94.400 228.400 C 94.400 227.300,94.220 226.400,94.000 226.400 C 93.780 226.400,93.600 225.584,93.600 224.587 C 93.600 223.345,93.411 222.702,93.000 222.545 C 92.561 222.376,92.400 221.684,92.400 219.957 C 92.400 218.652,92.221 217.600,92.000 217.600 C 91.769 217.600,91.600 216.333,91.600 214.600 C 91.600 212.200,91.480 211.600,91.000 211.600 C 90.093 211.600,90.093 183.803,91.000 183.455 C 91.455 183.281,91.600 182.544,91.600 180.413 C 91.600 178.804,91.771 177.600,92.000 177.600 C 92.226 177.600,92.400 176.467,92.400 175.000 C 92.400 172.956,92.528 172.400,93.000 172.400 C 93.453 172.400,93.600 171.911,93.600 170.400 C 93.600 169.300,93.780 168.400,94.000 168.400 C 94.220 168.400,94.400 167.500,94.400 166.400 C 94.400 164.889,94.547 164.400,95.000 164.400 C 95.419 164.400,95.600 163.978,95.600 163.000 C 95.600 162.230,95.780 161.600,96.000 161.600 C 96.220 161.600,96.400 160.880,96.400 160.000 C 96.400 158.844,96.567 158.400,97.000 158.400 C 97.373 158.400,97.600 158.022,97.600 157.400 C 97.600 156.850,97.780 156.400,98.000 156.400 C 98.220 156.400,98.400 155.770,98.400 155.000 C 98.400 154.022,98.581 153.600,99.000 153.600 C 99.373 153.600,99.600 153.222,99.600 152.600 C 99.600 152.050,99.780 151.600,100.000 151.600 C 100.220 151.600,100.400 151.169,100.400 150.643 C 100.400 150.116,100.670 149.582,101.000 149.455 C 101.330 149.329,101.600 148.859,101.600 148.413 C 101.600 147.966,101.780 147.600,102.000 147.600 C 102.220 147.600,102.400 147.169,102.400 146.643 C 102.400 146.116,102.670 145.582,103.000 145.455 C 103.330 145.329,103.600 144.859,103.600 144.413 C 103.600 143.966,103.780 143.600,104.000 143.600 C 104.220 143.600,104.400 143.150,104.400 142.600 C 104.400 141.978,104.627 141.600,105.000 141.600 C 105.373 141.600,105.600 141.222,105.600 140.600 C 105.600 140.050,105.780 139.600,106.000 139.600 C 106.220 139.600,106.400 139.330,106.400 139.000 C 106.400 138.670,106.670 138.400,107.000 138.400 C 107.357 138.400,107.600 138.033,107.600 137.495 C 107.600 136.996,108.049 136.253,108.600 135.839 C 109.150 135.426,109.600 134.753,109.600 134.344 C 109.600 133.935,109.780 133.600,110.000 133.600 C 110.220 133.600,110.400 133.330,110.400 133.000 C 110.400 132.670,110.670 132.400,111.000 132.400 C 111.340 132.400,111.600 132.041,111.600 131.571 C 111.600 130.686,112.466 129.600,113.171 129.600 C 113.407 129.600,113.600 129.330,113.600 129.000 C 113.600 128.670,113.780 128.400,114.000 128.400 C 114.220 128.400,114.400 127.950,114.400 127.400 C 114.400 126.850,114.593 126.400,114.829 126.400 C 115.382 126.400,116.400 125.382,116.400 124.829 C 116.400 124.593,116.593 124.400,116.829 124.400 C 117.382 124.400,118.400 123.382,118.400 122.829 C 118.400 122.593,118.593 122.400,118.829 122.400 C 119.534 122.400,120.400 121.314,120.400 120.429 C 120.400 119.959,120.660 119.600,121.000 119.600 C 121.330 119.600,121.600 119.407,121.600 119.171 C 121.600 118.618,122.618 117.600,123.171 117.600 C 123.407 117.600,123.600 117.407,123.600 117.171 C 123.600 116.466,124.686 115.600,125.571 115.600 C 126.041 115.600,126.400 115.340,126.400 115.000 C 126.400 114.670,126.593 114.400,126.829 114.400 C 127.382 114.400,128.400 113.382,128.400 112.829 C 128.400 112.593,128.593 112.400,128.829 112.400 C 129.382 112.400,130.400 111.382,130.400 110.829 C 130.400 110.593,130.670 110.400,131.000 110.400 C 131.330 110.400,131.600 110.220,131.600 110.000 C 131.600 109.780,131.935 109.600,132.344 109.600 C 132.753 109.600,133.426 109.150,133.839 108.600 C 134.252 108.050,134.817 107.600,135.095 107.600 C 135.373 107.600,135.600 107.407,135.600 107.171 C 135.600 106.466,136.686 105.600,137.571 105.600 C 138.041 105.600,138.400 105.340,138.400 105.000 C 138.400 104.670,138.670 104.400,139.000 104.400 C 139.330 104.400,139.600 104.220,139.600 104.000 C 139.600 103.780,140.050 103.600,140.600 103.600 C 141.150 103.600,141.600 103.407,141.600 103.171 C 141.600 102.466,142.686 101.600,143.571 101.600 C 144.041 101.600,144.400 101.340,144.400 101.000 C 144.400 100.627,144.778 100.400,145.400 100.400 C 145.950 100.400,146.400 100.220,146.400 100.000 C 146.400 99.780,146.850 99.600,147.400 99.600 C 148.022 99.600,148.400 99.373,148.400 99.000 C 148.400 98.670,148.670 98.400,149.000 98.400 C 149.330 98.400,149.600 98.220,149.600 98.000 C 149.600 97.780,150.050 97.600,150.600 97.600 C 151.222 97.600,151.600 97.373,151.600 97.000 C 151.600 96.627,151.978 96.400,152.600 96.400 C 153.150 96.400,153.600 96.220,153.600 96.000 C 153.600 95.780,154.050 95.600,154.600 95.600 C 155.222 95.600,155.600 95.373,155.600 95.000 C 155.600 94.581,156.022 94.400,157.000 94.400 C 157.770 94.400,158.400 94.220,158.400 94.000 C 158.400 93.780,158.850 93.600,159.400 93.600 C 160.022 93.600,160.400 93.373,160.400 93.000 C 160.400 92.627,160.778 92.400,161.400 92.400 C 161.950 92.400,162.400 92.220,162.400 92.000 C 162.400 91.780,163.120 91.600,164.000 91.600 C 165.156 91.600,165.600 91.433,165.600 91.000 C 165.600 90.581,166.022 90.400,167.000 90.400 C 167.770 90.400,168.400 90.220,168.400 90.000 C 168.400 89.780,169.120 89.600,170.000 89.600 C 171.156 89.600,171.600 89.433,171.600 89.000 C 171.600 88.547,172.089 88.400,173.600 88.400 C 174.700 88.400,175.600 88.220,175.600 88.000 C 175.600 87.778,176.667 87.600,178.000 87.600 C 179.867 87.600,180.400 87.467,180.400 87.000 C 180.400 86.520,181.000 86.400,183.400 86.400 C 185.133 86.400,186.400 86.231,186.400 86.000 C 186.400 85.752,188.533 85.600,192.000 85.600 C 196.711 85.600,197.600 85.505,197.600 85.000 C 197.600 84.520,198.200 84.400,200.600 84.400 C 203.000 84.400,203.600 84.520,203.600 85.000 C 203.600 85.508,204.578 85.600,210.000 85.600 C 214.000 85.600,216.400 85.750,216.400 86.000 C 216.400 86.231,217.652 86.400,219.357 86.400 C 221.617 86.400,222.369 86.542,222.545 87.000 C 222.714 87.442,223.412 87.600,225.187 87.600 C 226.529 87.600,227.600 87.778,227.600 88.000 C 227.600 88.220,228.500 88.400,229.600 88.400 C 231.111 88.400,231.600 88.547,231.600 89.000 C 231.600 89.419,232.022 89.600,233.000 89.600 C 233.770 89.600,234.400 89.780,234.400 90.000 C 234.400 90.220,235.120 90.400,236.000 90.400 C 237.156 90.400,237.600 90.567,237.600 91.000 C 237.600 91.373,237.978 91.600,238.600 91.600 C 239.150 91.600,239.600 91.780,239.600 92.000 C 239.600 92.220,240.050 92.400,240.600 92.400 C 241.222 92.400,241.600 92.627,241.600 93.000 C 241.600 93.373,241.978 93.600,242.600 93.600 C 243.150 93.600,243.600 93.780,243.600 94.000 C 243.600 94.220,244.050 94.400,244.600 94.400 C 245.222 94.400,245.600 94.627,245.600 95.000 C 245.600 95.373,245.978 95.600,246.600 95.600 C 247.150 95.600,247.600 95.780,247.600 96.000 C 247.600 96.220,248.050 96.400,248.600 96.400 C 249.222 96.400,249.600 96.627,249.600 97.000 C 249.600 97.357,249.967 97.600,250.505 97.600 C 251.004 97.600,251.747 98.049,252.161 98.600 C 252.574 99.150,253.247 99.600,253.656 99.600 C 254.065 99.600,254.400 99.780,254.400 100.000 C 254.400 100.220,254.850 100.400,255.400 100.400 C 256.022 100.400,256.400 100.627,256.400 101.000 C 256.400 101.330,256.670 101.600,257.000 101.600 C 257.330 101.600,257.600 101.780,257.600 102.000 C 257.600 102.220,258.050 102.400,258.600 102.400 C 259.150 102.400,259.600 102.593,259.600 102.829 C 259.600 103.534,260.686 104.400,261.571 104.400 C 262.041 104.400,262.400 104.660,262.400 105.000 C 262.400 105.330,262.627 105.600,262.905 105.600 C 263.183 105.600,263.748 106.050,264.161 106.600 C 264.574 107.150,265.247 107.600,265.656 107.600 C 266.065 107.600,266.400 107.780,266.400 108.000 C 266.400 108.220,266.670 108.400,267.000 108.400 C 267.330 108.400,267.600 108.593,267.600 108.829 C 267.600 109.382,268.618 110.400,269.171 110.400 C 269.407 110.400,269.600 110.593,269.600 110.829 C 269.600 111.683,270.774 112.400,272.171 112.400 C 272.957 112.400,273.600 112.220,273.600 112.000 C 273.600 111.780,273.889 111.600,274.242 111.600 C 274.595 111.600,276.663 109.800,278.839 107.600 C 281.014 105.400,282.976 103.600,283.197 103.600 C 283.419 103.600,283.600 103.407,283.600 103.171 C 283.600 102.618,284.618 101.600,285.171 101.600 C 285.407 101.600,285.600 101.407,285.600 101.171 C 285.600 100.618,286.618 99.600,287.171 99.600 C 287.407 99.600,287.600 99.407,287.600 99.171 C 287.600 98.618,288.618 97.600,289.171 97.600 C 289.407 97.600,289.600 97.407,289.600 97.171 C 289.600 96.618,290.618 95.600,291.171 95.600 C 291.407 95.600,291.600 95.407,291.600 95.171 C 291.600 94.618,292.618 93.600,293.171 93.600 C 293.407 93.600,293.600 93.407,293.600 93.171 C 293.600 92.618,294.618 91.600,295.171 91.600 C 295.407 91.600,295.600 91.407,295.600 91.171 C 295.600 90.618,296.618 89.600,297.171 89.600 C 297.407 89.600,297.600 89.407,297.600 89.171 C 297.600 88.618,298.618 87.600,299.171 87.600 C 299.407 87.600,299.600 87.407,299.600 87.171 C 299.600 86.618,300.618 85.600,301.171 85.600 C 301.407 85.600,301.600 85.330,301.600 85.000 C 301.600 84.660,301.959 84.400,302.429 84.400 C 303.314 84.400,304.400 83.534,304.400 82.829 C 304.400 82.593,304.593 82.400,304.829 82.400 C 305.382 82.400,306.400 81.382,306.400 80.829 C 306.400 80.593,306.593 80.400,306.829 80.400 C 307.382 80.400,308.400 79.382,308.400 78.829 C 308.400 78.593,308.593 78.400,308.829 78.400 C 309.382 78.400,310.400 77.382,310.400 76.829 C 310.400 76.593,310.593 76.400,310.829 76.400 C 311.382 76.400,312.400 75.382,312.400 74.829 C 312.400 74.593,312.593 74.400,312.829 74.400 C 313.382 74.400,314.400 73.382,314.400 72.829 C 314.400 72.593,314.593 72.400,314.829 72.400 C 315.382 72.400,316.400 71.382,316.400 70.829 C 316.400 70.593,316.593 70.400,316.829 70.400 C 317.382 70.400,318.400 69.382,318.400 68.829 C 318.400 68.593,318.593 68.400,318.829 68.400 C 319.382 68.400,320.400 67.382,320.400 66.829 C 320.400 66.593,320.593 66.400,320.829 66.400 C 321.534 66.400,322.400 65.314,322.400 64.429 C 322.400 63.973,322.220 63.600,322.000 63.600 C 321.780 63.600,321.600 63.330,321.600 63.000 C 321.600 62.670,321.408 62.400,321.173 62.400 C 320.938 62.400,320.152 61.770,319.426 61.000 C 318.700 60.230,317.722 59.600,317.253 59.600 C 316.784 59.600,316.400 59.407,316.400 59.171 C 316.400 58.618,315.382 57.600,314.829 57.600 C 314.593 57.600,314.400 57.407,314.400 57.171 C 314.400 56.618,313.382 55.600,312.829 55.600 C 312.593 55.600,312.400 55.330,312.400 55.000 C 312.400 54.660,312.041 54.400,311.571 54.400 C 310.686 54.400,309.600 53.534,309.600 52.829 C 309.600 52.593,309.373 52.400,309.095 52.400 C 308.817 52.400,308.252 51.950,307.839 51.400 C 307.426 50.850,306.753 50.400,306.344 50.400 C 305.935 50.400,305.600 50.220,305.600 50.000 C 305.600 49.780,305.330 49.600,305.000 49.600 C 304.670 49.600,304.400 49.330,304.400 49.000 C 304.400 48.660,304.041 48.400,303.571 48.400 C 302.686 48.400,301.600 47.534,301.600 46.829 C 301.600 46.593,301.330 46.400,301.000 46.400 C 300.670 46.400,300.400 46.220,300.400 46.000 C 300.400 45.780,299.950 45.600,299.400 45.600 C 298.850 45.600,298.400 45.407,298.400 45.171 C 298.400 44.466,297.314 43.600,296.429 43.600 C 295.959 43.600,295.600 43.340,295.600 43.000 C 295.600 42.627,295.222 42.400,294.600 42.400 C 294.050 42.400,293.600 42.220,293.600 42.000 C 293.600 41.780,293.330 41.600,293.000 41.600 C 292.670 41.600,292.400 41.330,292.400 41.000 C 292.400 40.627,292.022 40.400,291.400 40.400 C 290.850 40.400,290.400 40.220,290.400 40.000 C 290.400 39.780,289.950 39.600,289.400 39.600 C 288.850 39.600,288.400 39.407,288.400 39.171 C 288.400 38.479,287.321 37.600,286.471 37.600 C 286.039 37.600,285.582 37.330,285.455 37.000 C 285.329 36.670,284.859 36.400,284.413 36.400 C 283.966 36.400,283.600 36.220,283.600 36.000 C 283.600 35.780,283.150 35.600,282.600 35.600 C 281.978 35.600,281.600 35.373,281.600 35.000 C 281.600 34.627,281.222 34.400,280.600 34.400 C 280.050 34.400,279.600 34.220,279.600 34.000 C 279.600 33.780,279.169 33.600,278.643 33.600 C 278.116 33.600,277.582 33.330,277.455 33.000 C 277.329 32.670,276.859 32.400,276.413 32.400 C 275.966 32.400,275.600 32.220,275.600 32.000 C 275.600 31.780,275.169 31.600,274.643 31.600 C 274.116 31.600,273.582 31.330,273.455 31.000 C 273.311 30.623,272.699 30.400,271.813 30.400 C 271.036 30.400,270.400 30.220,270.400 30.000 C 270.400 29.780,269.950 29.600,269.400 29.600 C 268.778 29.600,268.400 29.373,268.400 29.000 C 268.400 28.581,267.978 28.400,267.000 28.400 C 266.230 28.400,265.600 28.220,265.600 28.000 C 265.600 27.780,265.169 27.600,264.643 27.600 C 264.116 27.600,263.582 27.330,263.455 27.000 C 263.311 26.623,262.699 26.400,261.813 26.400 C 261.036 26.400,260.400 26.220,260.400 26.000 C 260.400 25.780,259.789 25.600,259.043 25.600 C 258.205 25.600,257.597 25.370,257.455 25.000 C 257.311 24.623,256.699 24.400,255.813 24.400 C 255.036 24.400,254.400 24.220,254.400 24.000 C 254.400 23.780,253.500 23.600,252.400 23.600 C 250.889 23.600,250.400 23.453,250.400 23.000 C 250.400 22.581,249.978 22.400,249.000 22.400 C 248.230 22.400,247.600 22.220,247.600 22.000 C 247.600 21.774,246.467 21.600,245.000 21.600 C 242.956 21.600,242.400 21.472,242.400 21.000 C 242.400 20.547,241.911 20.400,240.400 20.400 C 239.300 20.400,238.400 20.220,238.400 20.000 C 238.400 19.769,237.133 19.600,235.400 19.600 C 233.000 19.600,232.400 19.480,232.400 19.000 C 232.400 18.514,231.756 18.400,229.000 18.400 C 227.000 18.400,225.600 18.235,225.600 18.000 C 225.600 17.755,223.667 17.600,220.600 17.600 C 216.422 17.600,215.600 17.501,215.600 17.000 C 215.600 16.477,213.667 16.400,200.600 16.400 C 187.533 16.400,185.600 16.477,185.600 17.000 " stroke="none" fill="#040404" fill-rule="evenodd"></path><path id="path1" d="" stroke="none" fill="#080404" fill-rule="evenodd"></path><path id="path2" d="" stroke="none" fill="#080404" fill-rule="evenodd"></path><path id="path3" d="" stroke="none" fill="#080404" fill-rule="evenodd"></path><path id="path4" d="" stroke="none" fill="#080404" fill-rule="evenodd"></path></g></svg>