<svg id="svg" version="1.1" xmlns="http://www.w3.org/2000/svg" xmlns:xlink="http://www.w3.org/1999/xlink" width="400" height="400" viewBox="0, 0, 400,400"><g id="svgg"><path id="path0" d="M215.000 126.000 C 214.340 126.168,212.509 126.327,210.931 126.353 C 209.352 126.379,207.102 126.590,205.931 126.821 C 199.645 128.064,199.033 128.193,194.600 129.197 C 187.465 130.814,177.915 133.969,172.095 136.631 C 170.930 137.164,169.847 137.595,169.688 137.589 C 167.969 137.521,155.227 144.727,155.214 145.773 C 155.187 147.988,152.506 154.210,148.868 160.500 C 147.213 163.361,146.276 165.011,145.096 167.144 C 144.443 168.324,143.030 170.722,141.955 172.474 C 140.880 174.225,140.000 175.728,140.000 175.812 C 140.000 175.896,139.435 176.918,138.744 178.082 C 138.053 179.247,137.179 180.740,136.801 181.400 C 136.423 182.060,135.640 183.410,135.061 184.400 C 133.970 186.265,127.326 199.589,126.782 201.000 C 122.958 210.933,121.600 217.116,121.600 224.600 C 121.600 235.990,125.284 247.118,133.387 260.200 C 134.477 261.960,135.839 264.030,136.414 264.800 C 136.989 265.570,138.256 267.276,139.230 268.591 C 143.776 274.731,149.897 281.533,154.005 285.011 C 156.370 287.013,161.744 291.049,162.758 291.584 C 164.776 292.650,169.374 290.123,174.752 284.991 C 181.551 278.504,186.174 276.204,196.000 274.421 C 196.990 274.241,198.790 273.873,200.000 273.603 C 203.687 272.781,205.683 272.407,208.400 272.029 C 211.270 271.630,212.992 271.329,215.400 270.803 C 216.280 270.611,218.170 270.253,219.600 270.008 C 222.957 269.434,226.188 268.825,228.200 268.387 C 229.080 268.196,230.790 267.834,232.000 267.583 C 239.692 265.989,248.072 263.438,253.042 261.179 C 255.957 259.854,256.924 258.459,261.757 248.600 C 265.864 240.224,265.939 240.043,268.983 231.200 C 272.146 222.008,274.009 213.789,275.644 201.800 C 276.262 197.269,276.256 179.716,275.634 175.400 C 274.384 166.716,274.262 166.020,273.154 161.300 C 271.214 153.034,267.380 143.457,262.946 135.800 C 260.667 131.864,250.245 128.200,235.600 126.185 C 231.167 125.575,217.165 125.449,215.000 126.000 M188.918 180.007 C 189.144 180.871,188.187 182.129,187.482 181.894 C 186.608 181.603,186.226 180.492,186.772 179.834 C 187.506 178.949,188.666 179.043,188.918 180.007 M228.320 180.080 C 228.654 180.414,228.800 182.524,228.800 187.000 C 228.800 191.263,228.953 193.593,229.253 193.893 C 230.161 194.801,229.310 195.600,227.436 195.600 C 225.401 195.600,224.831 195.071,225.761 194.043 C 226.284 193.465,226.400 192.295,226.400 187.600 C 226.400 182.905,226.284 181.735,225.761 181.157 C 224.588 179.861,227.060 178.820,228.320 180.080 M175.448 183.194 C 176.355 183.587,177.221 184.110,177.372 184.355 C 177.842 185.116,178.738 184.844,178.872 183.900 C 179.020 182.862,180.512 182.463,181.422 183.218 C 182.243 183.900,182.243 190.500,181.422 191.182 C 180.295 192.117,179.097 191.493,178.024 189.413 C 174.922 183.395,165.433 184.473,164.546 190.943 C 163.971 195.138,165.256 196.427,171.223 197.641 C 181.748 199.782,184.960 204.167,181.736 211.995 C 179.625 217.121,171.234 218.773,165.473 215.196 C 163.146 213.751,163.200 213.755,163.200 215.013 C 163.200 216.173,162.438 216.597,160.999 216.236 C 160.004 215.986,160.000 215.967,160.000 211.235 C 160.000 206.136,160.057 206.000,162.206 206.000 C 163.157 206.000,163.311 206.258,163.792 208.655 C 165.025 214.801,178.194 215.236,178.458 209.140 C 178.699 203.588,178.124 203.019,170.690 201.444 C 162.193 199.644,159.995 197.375,160.507 190.926 C 161.089 183.594,168.059 179.988,175.448 183.194 M200.379 183.438 C 201.851 184.027,202.111 184.024,203.754 183.396 C 207.802 181.851,209.600 183.853,209.600 189.907 C 209.600 192.005,209.784 193.624,210.053 193.893 C 210.909 194.749,210.115 195.600,208.462 195.600 C 206.620 195.600,205.660 194.780,206.595 194.004 C 207.280 193.436,207.472 186.649,206.832 185.638 C 206.416 184.981,204.410 184.952,203.225 185.587 C 202.124 186.176,201.977 192.870,203.039 194.043 C 203.969 195.071,203.399 195.600,201.364 195.600 C 199.454 195.600,198.712 194.870,199.570 193.836 C 199.866 193.479,199.989 191.895,199.915 189.386 C 199.785 184.969,199.423 184.500,196.797 185.349 L 195.400 185.800 195.284 189.345 C 195.195 192.055,195.317 193.119,195.800 193.857 C 196.666 195.177,196.269 195.600,194.164 195.600 C 192.133 195.600,191.491 194.825,192.551 193.654 C 193.462 192.648,193.503 185.402,192.600 185.055 C 192.270 184.929,192.000 184.459,192.000 184.013 C 192.000 183.116,193.872 182.832,194.650 183.610 C 194.930 183.890,195.494 183.832,196.430 183.426 C 198.179 182.667,198.453 182.668,200.379 183.438 M221.027 183.386 C 222.833 184.140,223.600 185.941,223.600 189.427 C 223.600 194.105,222.073 195.865,218.137 195.723 C 215.941 195.644,214.780 197.557,216.600 198.255 C 217.392 198.559,217.370 199.849,216.567 200.157 C 214.217 201.059,212.132 199.962,213.137 198.352 C 213.724 197.412,213.781 185.359,213.200 185.000 C 212.980 184.864,212.800 184.403,212.800 183.976 C 212.800 183.144,214.916 182.817,215.386 183.577 C 215.524 183.801,216.141 183.726,216.909 183.392 C 218.572 182.670,219.311 182.669,221.027 183.386 M188.800 188.441 C 188.933 191.799,189.178 193.695,189.534 194.123 C 190.346 195.098,189.744 195.600,187.764 195.600 C 185.733 195.600,185.091 194.825,186.151 193.654 C 187.062 192.648,187.103 185.402,186.200 185.055 C 184.815 184.524,185.513 183.144,187.100 183.276 L 188.600 183.400 188.800 188.441 M234.400 183.920 C 234.400 184.316,234.241 184.811,234.047 185.020 C 233.707 185.387,235.936 192.000,236.400 192.000 C 236.864 192.000,239.093 185.387,238.753 185.020 C 237.773 183.965,238.387 183.200,240.213 183.200 C 242.180 183.200,243.002 184.041,241.893 184.919 C 241.560 185.184,240.067 188.611,238.576 192.535 C 235.738 200.008,235.160 200.822,233.147 200.183 C 232.106 199.853,232.214 198.851,233.338 198.424 C 235.667 197.538,233.810 187.235,230.903 184.919 C 229.799 184.040,230.622 183.200,232.587 183.200 C 234.066 183.200,234.400 183.333,234.400 183.920 M217.729 185.083 C 216.221 185.368,215.961 186.121,216.084 189.846 L 216.200 193.372 217.453 193.730 C 220.413 194.577,222.027 192.016,221.228 187.741 C 220.780 185.340,219.901 184.673,217.729 185.083 M188.320 201.680 C 188.584 201.944,188.800 202.844,188.800 203.680 C 188.800 205.361,188.817 205.371,190.803 204.795 C 194.614 203.689,196.000 205.234,196.000 210.586 C 196.000 213.593,196.159 214.849,196.623 215.512 C 197.439 216.677,197.063 217.200,195.409 217.200 C 193.086 217.200,191.789 216.074,193.400 215.455 C 194.086 215.192,194.279 208.260,193.629 207.234 C 193.215 206.579,190.797 206.560,189.596 207.202 C 188.668 207.699,188.381 214.621,189.253 215.493 C 190.161 216.401,189.310 217.200,187.436 217.200 C 185.401 217.200,184.831 216.671,185.761 215.643 C 186.284 215.065,186.400 213.895,186.400 209.200 C 186.400 204.505,186.284 203.335,185.761 202.757 C 184.588 201.461,187.060 200.420,188.320 201.680 M206.181 204.966 C 208.074 205.757,208.400 206.621,208.400 210.842 C 208.400 213.688,208.549 214.702,209.049 215.254 C 210.253 216.585,208.251 218.091,206.974 216.814 C 206.727 216.567,205.946 216.650,204.794 217.047 C 201.501 218.183,199.200 216.746,199.200 213.555 C 199.200 211.092,200.758 210.000,204.272 210.000 C 206.185 210.000,206.658 209.484,206.247 207.847 C 205.816 206.128,202.184 206.129,201.752 207.847 C 201.481 208.928,200.218 209.145,199.846 208.175 C 198.913 205.744,203.039 203.654,206.181 204.966 M228.400 205.561 C 229.033 206.016,229.603 207.029,229.952 208.317 C 230.798 211.441,230.625 211.600,226.400 211.600 C 222.467 211.600,222.070 211.830,222.568 213.815 C 223.108 215.968,226.737 216.056,227.830 213.942 C 228.546 212.557,229.733 212.537,229.928 213.907 C 230.427 217.406,223.393 218.643,221.038 215.471 C 219.816 213.824,219.816 208.177,221.037 206.529 C 222.606 204.414,226.156 203.947,228.400 205.561 M214.602 205.606 L 214.858 206.413 215.883 205.606 C 217.236 204.542,219.200 204.515,219.200 205.561 C 219.200 206.056,218.756 206.477,217.926 206.766 C 215.512 207.607,215.200 208.186,215.200 211.813 C 215.200 214.771,215.291 215.166,216.100 215.734 C 217.329 216.596,216.450 217.186,213.924 217.194 C 211.807 217.201,211.219 216.684,212.161 215.643 C 212.900 214.826,213.106 207.037,212.400 206.600 C 212.180 206.464,212.000 206.003,212.000 205.576 C 212.000 204.453,214.244 204.479,214.602 205.606 M224.077 206.690 C 223.038 206.883,222.167 208.417,222.542 209.394 C 222.895 210.314,227.733 210.108,227.913 209.165 C 228.188 207.717,226.034 206.327,224.077 206.690 M203.530 211.890 C 201.761 212.076,201.025 212.848,201.356 214.168 C 201.838 216.089,205.741 215.770,206.243 213.770 C 206.543 212.575,206.196 211.578,205.513 211.667 C 205.231 211.704,204.339 211.804,203.530 211.890 " stroke="none" fill="#abace4" fill-rule="evenodd"></path><path id="path1" d="M262.003 133.892 C 262.005 134.062,262.775 135.550,263.715 137.200 C 265.377 140.118,265.824 141.012,267.537 144.832 C 269.720 149.703,271.986 156.352,273.182 161.400 C 274.229 165.818,274.375 166.652,275.634 175.400 C 276.256 179.716,276.262 197.269,275.644 201.800 C 274.333 211.411,273.076 217.579,270.753 225.800 C 270.363 227.179,268.087 233.864,266.803 237.400 C 265.641 240.604,265.196 241.588,261.750 248.600 C 258.821 254.560,257.954 256.190,256.670 258.150 C 256.301 258.712,256.000 259.354,256.000 259.576 C 256.000 260.052,258.532 259.645,258.733 259.137 C 258.807 258.951,259.172 258.800,259.545 258.800 C 259.918 258.800,260.483 258.440,260.800 258.000 C 261.117 257.560,261.697 257.200,262.088 257.200 C 262.480 257.200,262.800 257.020,262.800 256.800 C 262.800 256.580,263.059 256.400,263.376 256.400 C 264.127 256.400,274.800 245.808,274.800 245.063 C 274.800 244.750,275.160 244.399,275.600 244.284 C 276.047 244.167,276.400 243.738,276.400 243.313 C 276.400 242.894,276.760 242.164,277.200 241.692 C 277.640 241.220,278.000 240.596,278.000 240.305 C 278.000 240.014,278.360 239.517,278.800 239.200 C 279.240 238.883,279.600 238.303,279.600 237.912 C 279.600 237.520,279.780 237.200,280.000 237.200 C 280.220 237.200,280.400 236.840,280.400 236.400 C 280.400 235.960,280.580 235.600,280.800 235.600 C 281.020 235.600,281.200 235.240,281.200 234.800 C 281.200 234.360,281.380 234.000,281.600 234.000 C 281.820 234.000,282.000 233.640,282.000 233.200 C 282.000 232.760,282.180 232.400,282.400 232.400 C 282.620 232.400,282.800 232.040,282.800 231.600 C 282.800 231.160,282.980 230.800,283.200 230.800 C 283.420 230.800,283.600 230.361,283.600 229.824 C 283.600 229.287,283.780 228.736,284.000 228.600 C 284.220 228.464,284.400 228.003,284.400 227.576 C 284.400 227.149,284.580 226.800,284.800 226.800 C 285.020 226.800,285.200 226.260,285.200 225.600 C 285.200 224.940,285.380 224.400,285.600 224.400 C 285.820 224.400,286.000 223.860,286.000 223.200 C 286.000 222.540,286.180 222.000,286.400 222.000 C 286.620 222.000,286.800 221.460,286.800 220.800 C 286.800 220.140,286.980 219.600,287.200 219.600 C 287.420 219.600,287.600 218.880,287.600 218.000 C 287.600 217.120,287.780 216.400,288.000 216.400 C 288.220 216.400,288.400 215.781,288.400 215.024 C 288.400 214.267,288.580 213.536,288.800 213.400 C 289.020 213.264,289.200 212.443,289.200 211.576 C 289.200 210.709,289.380 210.000,289.600 210.000 C 289.820 210.000,290.000 209.100,290.000 208.000 C 290.000 206.900,290.180 206.000,290.400 206.000 C 290.620 206.000,290.800 205.111,290.800 204.024 C 290.800 202.937,290.980 201.936,291.200 201.800 C 291.420 201.664,291.600 200.768,291.600 199.810 C 291.600 198.790,291.807 197.983,292.100 197.865 C 292.500 197.704,292.500 197.657,292.100 197.632 C 291.825 197.614,291.600 197.229,291.600 196.776 C 291.600 196.323,291.780 196.064,292.000 196.200 C 292.262 196.362,292.398 193.506,292.394 187.924 C 292.390 182.273,292.257 179.602,292.000 180.000 C 291.735 180.410,291.610 179.366,291.606 176.700 C 291.602 174.371,291.439 172.800,291.200 172.800 C 290.980 172.800,290.800 171.900,290.800 170.800 C 290.800 169.700,290.620 168.800,290.400 168.800 C 290.180 168.800,290.000 168.185,290.000 167.433 C 290.000 166.682,289.820 166.007,289.601 165.933 C 289.381 165.860,289.172 165.037,289.136 164.105 C 289.096 163.090,288.775 162.094,288.335 161.622 C 287.931 161.188,287.600 160.376,287.600 159.817 C 287.600 159.258,287.420 158.800,287.200 158.800 C 286.980 158.800,286.800 158.440,286.800 158.000 C 286.800 157.560,286.620 157.200,286.400 157.200 C 286.180 157.200,286.000 156.840,286.000 156.400 C 286.000 155.960,285.820 155.600,285.600 155.600 C 285.380 155.600,285.200 155.280,285.200 154.888 C 285.200 154.497,284.840 153.917,284.400 153.600 C 283.960 153.283,283.600 152.703,283.600 152.312 C 283.600 151.920,283.420 151.600,283.200 151.600 C 282.980 151.600,282.800 151.316,282.800 150.969 C 282.800 150.621,282.080 149.646,281.200 148.800 C 280.320 147.954,279.600 147.066,279.600 146.825 C 279.600 146.254,273.746 140.400,273.175 140.400 C 272.934 140.400,272.046 139.680,271.200 138.800 C 270.354 137.920,269.467 137.200,269.228 137.200 C 268.988 137.200,268.228 136.660,267.537 136.000 C 266.846 135.340,265.873 134.800,265.374 134.800 C 264.875 134.800,264.407 134.648,264.333 134.462 C 264.159 134.020,261.999 133.492,262.003 133.892 M153.600 145.200 C 153.283 145.640,152.703 146.000,152.312 146.000 C 151.920 146.000,151.600 146.180,151.600 146.400 C 151.600 146.620,151.280 146.800,150.888 146.800 C 150.497 146.800,149.917 147.160,149.600 147.600 C 149.283 148.040,148.743 148.400,148.400 148.400 C 148.057 148.400,147.517 148.760,147.200 149.200 C 146.883 149.640,146.375 150.000,146.072 150.000 C 145.769 150.000,145.017 150.540,144.400 151.200 C 143.783 151.860,143.063 152.400,142.800 152.400 C 142.537 152.400,141.817 152.940,141.200 153.600 C 140.583 154.260,139.871 154.800,139.616 154.800 C 139.361 154.800,139.264 154.980,139.400 155.200 C 139.536 155.420,139.352 155.600,138.992 155.600 C 138.632 155.600,137.646 156.320,136.800 157.200 C 135.954 158.080,135.054 158.800,134.800 158.800 C 134.546 158.800,133.676 159.485,132.869 160.322 C 132.061 161.160,131.085 161.964,130.700 162.110 C 130.315 162.256,130.000 162.651,130.000 162.987 C 130.000 163.324,129.724 163.600,129.387 163.600 C 129.051 163.600,128.655 163.915,128.508 164.300 C 128.361 164.685,127.377 165.843,126.321 166.874 C 125.264 167.905,124.400 168.924,124.400 169.139 C 124.400 169.354,123.320 170.627,122.000 171.968 C 120.680 173.308,119.600 174.674,119.600 175.003 C 119.600 175.331,119.324 175.600,118.987 175.600 C 118.651 175.600,118.258 175.915,118.115 176.300 C 117.972 176.685,117.528 177.291,117.128 177.647 C 116.727 178.003,116.400 178.588,116.400 178.947 C 116.400 179.306,116.220 179.600,116.000 179.600 C 115.780 179.600,115.600 179.920,115.600 180.312 C 115.600 180.703,115.240 181.283,114.800 181.600 C 114.360 181.917,114.000 182.414,114.000 182.705 C 114.000 182.996,113.640 183.620,113.200 184.092 C 112.760 184.564,112.400 185.187,112.400 185.475 C 112.400 185.764,112.220 186.000,112.000 186.000 C 111.780 186.000,111.600 186.360,111.600 186.800 C 111.600 187.240,111.420 187.600,111.200 187.600 C 110.980 187.600,110.800 187.960,110.800 188.400 C 110.800 188.840,110.620 189.200,110.400 189.200 C 110.180 189.200,110.000 189.560,110.000 190.000 C 110.000 190.440,109.820 190.800,109.600 190.800 C 109.380 190.800,109.200 191.160,109.200 191.600 C 109.200 192.040,109.020 192.400,108.800 192.400 C 108.580 192.400,108.400 192.760,108.400 193.200 C 108.400 193.640,108.220 194.000,108.000 194.000 C 107.780 194.000,107.600 194.450,107.600 195.000 C 107.600 195.550,107.420 196.000,107.200 196.000 C 106.980 196.000,106.800 196.371,106.800 196.824 C 106.800 197.277,106.620 197.536,106.400 197.400 C 106.167 197.256,106.000 197.663,106.000 198.376 C 106.000 199.049,105.820 199.600,105.600 199.600 C 105.380 199.600,105.200 200.100,105.200 200.712 C 105.200 201.365,104.870 202.061,104.400 202.400 C 103.600 202.976,103.244 203.867,104.000 203.400 C 104.220 203.264,104.400 203.433,104.400 203.776 C 104.400 204.119,104.220 204.400,104.000 204.400 C 103.780 204.400,103.600 204.929,103.600 205.576 C 103.600 206.223,103.420 206.864,103.200 207.000 C 102.980 207.136,102.800 207.867,102.800 208.624 C 102.800 209.381,102.620 210.000,102.400 210.000 C 102.180 210.000,102.000 210.810,102.000 211.800 C 102.000 212.790,101.820 213.600,101.600 213.600 C 101.380 213.600,101.200 214.601,101.200 215.824 C 101.200 217.204,101.048 217.953,100.800 217.800 C 100.554 217.648,100.400 218.303,100.400 219.496 C 100.400 220.565,100.175 221.679,99.900 221.970 C 99.500 222.394,99.500 222.537,99.900 222.683 C 100.493 222.901,100.577 224.000,100.000 224.000 C 99.780 224.000,99.600 224.191,99.600 224.424 C 99.600 224.657,99.825 224.712,100.100 224.547 C 100.476 224.321,100.472 224.405,100.082 224.886 C 99.478 225.632,99.440 235.746,100.043 235.374 C 100.242 235.250,100.400 236.751,100.400 238.776 C 100.400 240.925,100.563 242.400,100.800 242.400 C 101.020 242.400,101.200 243.210,101.200 244.200 C 101.200 245.190,101.380 246.000,101.600 246.000 C 101.820 246.000,102.000 246.630,102.000 247.400 C 102.000 248.170,102.180 248.800,102.400 248.800 C 102.620 248.800,102.800 249.340,102.800 250.000 C 102.800 250.660,102.980 251.200,103.200 251.200 C 103.420 251.200,103.600 251.650,103.600 252.200 C 103.600 252.750,103.780 253.200,104.000 253.200 C 104.220 253.200,104.400 253.740,104.400 254.400 C 104.400 255.060,104.580 255.600,104.800 255.600 C 105.020 255.600,105.200 255.960,105.200 256.400 C 105.200 256.840,105.380 257.200,105.600 257.200 C 105.820 257.200,106.000 257.700,106.000 258.312 C 106.000 258.965,106.330 259.661,106.800 260.000 C 107.240 260.317,107.600 260.857,107.600 261.200 C 107.600 261.543,107.960 262.083,108.400 262.400 C 108.840 262.717,109.200 263.297,109.200 263.688 C 109.200 264.080,109.380 264.400,109.600 264.400 C 109.820 264.400,110.000 264.720,110.000 265.112 C 110.000 265.503,110.360 266.083,110.800 266.400 C 111.240 266.717,111.600 267.257,111.600 267.600 C 111.600 267.943,111.960 268.483,112.400 268.800 C 112.840 269.117,113.200 269.657,113.200 270.000 C 113.200 270.343,113.560 270.883,114.000 271.200 C 114.440 271.517,114.800 272.013,114.800 272.301 C 114.800 272.589,115.115 272.944,115.500 273.090 C 116.403 273.432,117.200 274.224,117.200 274.779 C 117.200 275.349,122.254 280.400,122.824 280.400 C 123.065 280.400,123.954 281.120,124.800 282.000 C 125.646 282.880,126.542 283.600,126.792 283.600 C 127.042 283.600,127.119 283.808,126.962 284.062 C 126.793 284.336,126.851 284.415,127.106 284.258 C 127.342 284.112,127.807 284.264,128.139 284.596 C 128.471 284.928,128.946 285.200,129.195 285.200 C 129.444 285.200,129.536 285.380,129.400 285.600 C 129.264 285.820,129.523 286.000,129.976 286.000 C 130.429 286.000,130.800 286.180,130.800 286.400 C 130.800 286.620,131.160 286.800,131.600 286.800 C 132.040 286.800,132.400 286.980,132.400 287.200 C 132.400 287.420,132.760 287.600,133.200 287.600 C 133.640 287.600,134.000 287.780,134.000 288.000 C 134.000 288.220,134.360 288.400,134.800 288.400 C 135.240 288.400,135.600 288.580,135.600 288.800 C 135.600 289.020,135.960 289.200,136.400 289.200 C 136.840 289.200,137.200 289.380,137.200 289.600 C 137.200 289.820,137.751 290.000,138.424 290.000 C 139.137 290.000,139.544 290.167,139.400 290.400 C 139.253 290.639,139.737 290.800,140.600 290.800 C 141.463 290.800,141.947 290.961,141.800 291.200 C 141.647 291.448,142.396 291.600,143.776 291.600 C 144.999 291.600,146.000 291.780,146.000 292.000 C 146.000 292.226,147.133 292.400,148.600 292.400 C 150.067 292.400,151.200 292.574,151.200 292.800 C 151.200 293.703,161.353 293.288,161.931 292.361 C 162.220 291.900,162.398 291.482,162.328 291.433 C 155.681 286.798,149.835 281.504,144.844 275.600 C 141.570 271.728,141.334 271.432,139.230 268.591 C 138.256 267.276,136.989 265.570,136.414 264.800 C 135.839 264.030,134.477 261.960,133.387 260.200 C 125.284 247.118,121.600 235.990,121.600 224.600 C 121.600 217.116,122.958 210.933,126.782 201.000 C 127.326 199.589,133.970 186.265,135.061 184.400 C 135.640 183.410,136.423 182.060,136.801 181.400 C 137.179 180.740,138.053 179.247,138.744 178.082 C 139.435 176.918,140.000 175.896,140.000 175.812 C 140.000 175.728,140.880 174.225,141.955 172.474 C 143.030 170.722,144.443 168.324,145.096 167.144 C 146.276 165.011,147.213 163.361,148.868 160.500 C 152.596 154.055,155.200 147.958,155.200 145.673 C 155.200 144.210,154.470 143.994,153.600 145.200 " stroke="none" fill="#7cfbfb" fill-rule="evenodd"></path><path id="path2" d="M191.450 99.120 C 191.286 99.384,190.353 99.600,189.376 99.600 C 188.399 99.600,187.600 99.735,187.599 99.900 C 187.599 100.065,187.015 100.241,186.302 100.292 C 185.589 100.342,184.944 100.567,184.869 100.792 C 184.795 101.016,184.208 101.200,183.567 101.200 C 182.925 101.200,182.400 101.380,182.400 101.600 C 182.400 101.820,181.630 102.000,180.688 102.000 C 179.435 102.000,178.822 102.214,178.400 102.800 C 178.083 103.240,177.520 103.600,177.149 103.600 C 176.309 103.600,173.200 105.233,173.200 105.674 C 173.200 105.853,172.916 106.000,172.569 106.000 C 172.221 106.000,171.246 106.720,170.400 107.600 C 169.554 108.480,168.678 109.200,168.452 109.200 C 167.915 109.200,160.400 116.656,160.400 117.189 C 160.400 117.414,159.680 118.363,158.800 119.297 C 157.920 120.231,157.200 121.224,157.200 121.503 C 157.200 121.782,156.992 122.413,156.738 122.905 C 156.483 123.397,156.123 124.113,155.938 124.495 C 155.752 124.877,155.600 129.422,155.600 134.595 C 155.600 144.093,155.724 144.882,157.020 143.634 C 157.627 143.049,166.368 138.656,169.000 137.613 C 170.320 137.090,172.509 136.162,173.866 135.551 C 176.250 134.477,183.912 131.830,187.600 130.807 C 188.590 130.532,189.850 130.165,190.400 129.992 C 191.366 129.687,193.223 129.239,197.000 128.400 C 198.897 127.978,201.397 127.423,203.400 126.979 C 206.330 126.329,213.004 125.905,223.200 125.722 C 233.695 125.534,236.347 125.687,241.400 126.777 C 248.324 128.270,247.746 128.115,253.600 130.042 C 255.690 130.729,258.110 131.632,258.978 132.048 C 260.143 132.605,260.667 132.685,260.978 132.352 C 261.276 132.033,261.253 131.846,260.900 131.717 C 260.625 131.616,260.400 131.261,260.400 130.927 C 260.400 130.594,259.905 129.842,259.300 129.257 C 258.695 128.671,258.146 127.943,258.081 127.639 C 258.015 127.334,257.430 126.589,256.781 125.982 C 256.131 125.375,255.600 124.678,255.600 124.431 C 255.600 124.185,254.366 122.744,252.858 121.230 C 251.349 119.716,250.005 118.189,249.870 117.838 C 249.735 117.487,249.392 117.200,249.107 117.200 C 248.823 117.200,248.412 116.810,248.195 116.333 C 247.978 115.856,247.447 115.271,247.016 115.033 C 246.586 114.795,245.565 113.925,244.748 113.100 C 243.931 112.275,243.051 111.600,242.792 111.600 C 242.533 111.600,241.817 111.060,241.200 110.400 C 240.583 109.740,239.857 109.200,239.586 109.200 C 239.316 109.200,238.803 108.884,238.447 108.497 C 238.091 108.111,237.305 107.540,236.700 107.230 C 236.095 106.919,235.600 106.515,235.600 106.332 C 235.600 106.150,235.255 106.000,234.833 106.000 C 234.412 106.000,234.007 105.822,233.933 105.603 C 233.860 105.385,233.314 105.167,232.719 105.118 C 232.124 105.069,231.717 104.950,231.813 104.854 C 232.117 104.550,229.951 103.600,228.954 103.600 C 228.429 103.600,227.999 103.465,227.997 103.300 C 227.992 102.857,225.979 102.000,224.944 102.000 C 224.451 102.000,223.936 101.820,223.800 101.600 C 223.664 101.380,222.923 101.200,222.153 101.200 C 221.383 101.200,220.847 101.048,220.961 100.863 C 221.076 100.677,220.231 100.493,219.085 100.453 C 217.938 100.413,216.940 100.205,216.867 99.990 C 216.793 99.776,216.129 99.600,215.390 99.600 C 214.652 99.600,213.936 99.420,213.800 99.200 C 213.645 98.950,209.588 98.800,202.953 98.800 C 195.988 98.800,192.438 98.937,192.600 99.200 C 192.736 99.420,192.672 99.600,192.457 99.600 C 192.242 99.600,191.995 99.384,191.907 99.120 C 191.782 98.746,191.681 98.746,191.450 99.120 M252.753 261.555 C 251.957 261.953,250.967 262.383,250.553 262.510 C 250.139 262.637,248.180 263.318,246.200 264.023 C 244.220 264.727,242.060 265.451,241.400 265.629 C 237.858 266.590,236.675 266.874,233.200 267.597 C 231.110 268.033,228.230 268.633,226.800 268.932 C 225.370 269.231,222.850 269.697,221.200 269.968 C 219.550 270.239,217.480 270.613,216.600 270.798 C 213.848 271.378,210.713 271.939,207.600 272.408 C 205.950 272.657,203.790 273.040,202.800 273.259 C 200.468 273.773,198.372 274.218,195.400 274.827 C 186.157 276.722,181.619 278.895,176.248 283.996 C 174.682 285.484,172.770 287.216,172.000 287.844 C 171.230 288.473,170.503 289.118,170.385 289.279 C 170.022 289.774,165.438 291.990,164.767 291.995 C 164.418 291.998,164.028 292.105,163.900 292.233 C 163.642 292.492,165.018 294.000,165.512 294.000 C 165.683 294.000,166.083 294.360,166.400 294.800 C 166.717 295.240,167.214 295.600,167.505 295.600 C 167.796 295.600,168.420 295.960,168.892 296.400 C 169.364 296.840,170.268 297.200,170.899 297.200 C 171.563 297.200,171.943 297.369,171.800 297.600 C 171.664 297.820,171.913 298.000,172.353 298.000 C 172.793 298.000,173.264 298.180,173.400 298.400 C 173.536 298.620,173.961 298.800,174.344 298.800 C 175.219 298.800,177.193 299.699,177.197 300.100 C 177.199 300.265,177.729 300.400,178.376 300.400 C 179.023 300.400,179.664 300.580,179.800 300.800 C 179.936 301.020,180.982 301.203,182.124 301.206 C 183.479 301.210,184.007 301.335,183.643 301.565 C 183.310 301.776,186.666 301.941,191.981 301.976 C 198.504 302.019,201.034 301.904,201.468 301.543 C 201.942 301.150,202.134 301.166,202.424 301.626 C 202.677 302.024,202.790 302.047,202.794 301.700 C 202.798 301.362,203.505 301.200,204.976 301.200 C 206.173 301.200,207.264 301.020,207.400 300.800 C 207.536 300.580,208.177 300.400,208.824 300.400 C 209.471 300.400,210.000 300.220,210.000 300.000 C 210.000 299.780,210.585 299.596,211.300 299.591 C 212.015 299.586,213.050 299.230,213.600 298.800 C 214.150 298.370,215.050 298.010,215.600 298.000 C 216.150 297.990,217.050 297.630,217.600 297.200 C 218.150 296.770,218.825 296.414,219.100 296.409 C 219.375 296.404,219.600 296.220,219.600 296.000 C 219.600 295.780,219.945 295.600,220.367 295.600 C 220.788 295.600,221.193 295.433,221.267 295.230 C 221.340 295.026,221.670 294.801,222.000 294.730 C 222.330 294.658,222.891 294.285,223.247 293.900 C 223.603 293.515,224.188 293.200,224.547 293.200 C 224.906 293.200,225.200 293.020,225.200 292.800 C 225.200 292.580,225.560 292.400,226.000 292.400 C 226.440 292.400,226.800 292.250,226.800 292.068 C 226.800 291.885,227.295 291.480,227.900 291.168 C 228.505 290.855,229.450 290.150,230.000 289.600 C 230.550 289.050,231.495 288.345,232.100 288.032 C 232.705 287.720,233.200 287.220,233.200 286.920 C 233.200 286.620,233.515 286.256,233.900 286.110 C 234.712 285.803,246.800 273.643,246.800 273.134 C 246.800 272.946,247.340 272.228,248.000 271.537 C 248.660 270.846,249.200 270.110,249.200 269.901 C 249.200 269.692,249.740 269.017,250.400 268.400 C 251.060 267.783,251.600 267.031,251.600 266.728 C 251.600 266.425,251.960 265.917,252.400 265.600 C 252.840 265.283,253.200 264.737,253.200 264.387 C 253.200 264.037,253.524 263.402,253.920 262.975 C 255.782 260.971,255.240 260.312,252.753 261.555 " stroke="none" fill="#fbace4" fill-rule="evenodd"></path><path id="path3" d="M216.800 100.000 C 216.800 100.220,217.205 100.397,217.700 100.394 C 218.428 100.389,218.485 100.314,218.000 100.000 C 217.224 99.499,216.800 99.499,216.800 100.000 M183.400 100.800 C 183.264 101.020,183.523 101.200,183.976 101.200 C 184.429 101.200,184.800 101.020,184.800 100.800 C 184.800 100.580,184.541 100.400,184.224 100.400 C 183.907 100.400,183.536 100.580,183.400 100.800 M181.000 101.600 C 180.864 101.820,181.123 102.000,181.576 102.000 C 182.029 102.000,182.400 101.820,182.400 101.600 C 182.400 101.380,182.141 101.200,181.824 101.200 C 181.507 101.200,181.136 101.380,181.000 101.600 M241.200 110.167 C 241.200 110.588,242.405 111.728,242.621 111.512 C 242.722 111.411,242.444 111.002,242.002 110.602 C 241.561 110.203,241.200 110.007,241.200 110.167 M159.293 118.000 C 159.018 118.440,158.898 118.800,159.025 118.800 C 159.325 118.800,160.400 117.727,160.400 117.429 C 160.400 116.920,159.762 117.249,159.293 118.000 M255.600 124.618 C 255.600 124.964,257.631 126.902,257.808 126.725 C 258.002 126.531,256.210 124.400,255.853 124.400 C 255.714 124.400,255.600 124.498,255.600 124.618 M258.081 127.582 C 258.216 128.242,259.964 130.169,260.208 129.926 C 260.295 129.838,259.825 129.144,259.164 128.383 C 258.503 127.623,258.015 127.262,258.081 127.582 M155.053 130.915 C 154.856 131.773,154.856 134.813,155.053 137.915 C 155.393 143.293,155.402 143.332,155.516 139.900 C 155.714 133.899,155.467 129.108,155.053 130.915 M260.400 131.017 C 260.400 131.730,262.867 134.000,263.642 134.000 C 264.022 134.000,264.414 134.225,264.512 134.500 C 264.610 134.775,264.827 134.874,264.993 134.719 C 265.324 134.412,264.283 133.200,263.688 133.200 C 263.485 133.200,262.754 132.660,262.063 132.000 C 260.842 130.833,260.400 130.572,260.400 131.017 M279.600 147.029 C 279.600 147.327,280.675 148.400,280.975 148.400 C 281.102 148.400,280.982 148.040,280.707 147.600 C 280.238 146.849,279.600 146.520,279.600 147.029 M143.293 151.600 C 143.018 152.040,142.898 152.400,143.025 152.400 C 143.325 152.400,144.400 151.327,144.400 151.029 C 144.400 150.520,143.762 150.849,143.293 151.600 M140.229 153.829 C 139.805 154.138,139.572 154.505,139.710 154.643 C 139.849 154.782,140.262 154.595,140.629 154.229 C 141.491 153.366,141.225 153.100,140.229 153.829 M136.240 157.040 C 135.410 157.823,134.824 158.557,134.939 158.672 C 135.053 158.786,135.807 158.220,136.613 157.413 C 137.420 156.607,138.006 155.872,137.915 155.781 C 137.824 155.691,137.070 156.257,136.240 157.040 M289.200 165.200 C 289.200 165.640,289.380 166.000,289.600 166.000 C 289.820 166.000,290.000 165.640,290.000 165.200 C 290.000 164.760,289.820 164.400,289.600 164.400 C 289.380 164.400,289.200 164.760,289.200 165.200 M290.000 167.776 C 290.000 168.339,290.180 168.800,290.400 168.800 C 290.620 168.800,290.800 168.451,290.800 168.024 C 290.800 167.597,290.620 167.136,290.400 167.000 C 290.173 166.860,290.000 167.196,290.000 167.776 M290.800 171.557 C 290.800 172.267,290.969 172.743,291.175 172.615 C 291.382 172.488,291.478 172.003,291.388 171.537 C 291.123 170.159,290.800 170.170,290.800 171.557 M121.693 171.600 C 121.418 172.040,121.298 172.400,121.425 172.400 C 121.725 172.400,122.800 171.327,122.800 171.029 C 122.800 170.520,122.162 170.849,121.693 171.600 M291.600 177.957 C 291.600 179.239,291.754 179.952,291.997 179.802 C 292.412 179.545,292.296 176.563,291.854 176.121 C 291.714 175.981,291.600 176.807,291.600 177.957 M187.456 179.878 C 186.978 180.356,187.198 181.200,187.800 181.200 C 188.130 181.200,188.400 180.941,188.400 180.624 C 188.400 179.955,187.829 179.504,187.456 179.878 M226.000 180.323 C 226.000 180.532,226.270 180.926,226.600 181.200 C 227.084 181.601,227.200 182.842,227.200 187.600 C 227.200 192.358,227.084 193.599,226.600 194.000 C 225.604 194.827,225.915 195.200,227.600 195.200 C 229.191 195.200,229.737 194.692,228.610 194.259 C 228.126 194.074,227.999 192.774,227.910 187.116 C 227.801 180.286,227.789 180.198,226.900 180.072 C 226.405 180.002,226.000 180.115,226.000 180.323 M166.510 183.188 C 162.391 184.167,160.066 189.056,161.193 194.368 C 162.040 198.361,164.026 199.631,171.817 201.164 C 177.546 202.290,179.201 203.767,179.199 207.749 C 179.198 212.026,176.986 213.802,171.671 213.795 C 166.388 213.788,163.818 212.032,163.045 207.900 C 162.811 206.650,162.600 206.400,161.782 206.400 L 160.800 206.400 160.800 211.228 C 160.800 216.006,160.809 216.054,161.700 215.928 C 162.317 215.840,162.638 215.486,162.720 214.800 C 162.961 212.786,163.120 212.744,165.020 214.195 C 167.377 215.993,168.188 216.202,172.800 216.192 C 179.002 216.179,181.474 214.127,181.881 208.653 C 182.383 201.890,180.056 199.767,170.200 197.996 C 164.472 196.967,162.432 193.450,164.581 188.307 C 166.507 183.697,175.706 184.164,178.442 189.012 C 180.481 192.625,181.200 192.145,181.200 187.172 C 181.200 183.224,181.182 183.147,180.300 183.272 C 179.610 183.370,179.371 183.704,179.275 184.700 C 179.124 186.267,179.101 186.270,177.374 184.953 C 174.795 182.986,170.381 182.269,166.510 183.188 M196.007 184.236 C 195.102 184.628,194.564 184.693,194.473 184.420 C 194.396 184.189,193.952 184.000,193.487 184.000 C 192.828 184.000,192.747 184.107,193.120 184.480 C 193.883 185.243,193.778 193.957,193.002 194.254 C 192.017 194.632,192.750 195.200,194.224 195.200 C 195.551 195.200,196.028 194.712,195.200 194.200 C 194.409 193.711,194.709 186.206,195.550 185.445 C 196.804 184.310,198.968 184.168,199.955 185.155 C 201.049 186.249,201.254 193.851,200.200 194.255 C 199.064 194.691,199.603 195.200,201.200 195.200 C 202.885 195.200,203.196 194.827,202.200 194.000 C 201.495 193.415,201.338 187.237,201.997 186.006 C 202.968 184.192,206.746 184.086,207.550 185.850 C 208.243 187.371,208.134 193.409,207.400 194.143 C 206.500 195.043,206.648 195.200,208.400 195.200 C 209.997 195.200,210.536 194.691,209.400 194.255 C 208.917 194.070,208.800 193.166,208.800 189.613 C 208.800 183.708,206.575 181.885,202.486 184.439 C 201.857 184.832,201.533 184.799,200.766 184.262 C 199.604 183.447,197.846 183.438,196.007 184.236 M216.707 184.175 C 216.072 184.506,215.517 184.589,215.383 184.373 C 215.089 183.896,213.200 183.883,213.200 184.357 C 213.200 184.554,213.470 184.818,213.800 184.945 C 214.700 185.290,214.680 197.422,213.777 198.711 C 213.163 199.588,213.178 199.600,214.839 199.600 C 216.470 199.600,216.502 199.575,215.836 198.839 C 215.375 198.330,215.189 197.577,215.274 196.563 L 215.400 195.048 217.875 195.151 C 221.813 195.316,223.200 193.817,223.200 189.400 C 223.200 184.533,220.376 182.261,216.707 184.175 M186.700 184.446 C 187.481 185.249,187.394 193.951,186.602 194.254 C 185.617 194.632,186.350 195.200,187.824 195.200 C 189.214 195.200,189.521 194.881,188.814 194.174 C 188.601 193.961,188.376 191.630,188.314 188.994 C 188.200 184.218,188.196 184.199,187.200 184.066 C 186.392 183.958,186.296 184.031,186.700 184.446 M231.486 184.500 C 231.697 184.775,232.276 186.080,232.774 187.400 C 233.271 188.720,233.826 190.160,234.008 190.600 C 235.905 195.200,235.931 197.777,234.090 198.595 C 232.864 199.139,232.973 199.680,234.278 199.527 C 235.419 199.392,235.439 199.352,239.705 188.200 C 240.378 186.440,241.102 184.775,241.313 184.500 C 241.602 184.124,241.381 184.000,240.422 184.000 C 239.350 184.000,239.185 184.122,239.387 184.760 C 239.520 185.178,239.155 186.753,238.576 188.260 C 237.998 189.767,237.339 191.495,237.114 192.100 C 236.577 193.538,236.205 193.488,235.608 191.900 C 235.339 191.185,234.974 190.240,234.797 189.800 C 233.571 186.758,233.203 185.419,233.413 184.758 C 233.615 184.122,233.448 184.000,232.378 184.000 C 231.419 184.000,231.197 184.124,231.486 184.500 M221.019 185.482 C 224.238 189.815,219.909 196.886,215.900 193.843 C 215.002 193.162,214.862 186.281,215.728 185.415 C 216.914 184.228,220.118 184.269,221.019 185.482 M291.600 196.776 C 291.600 197.229,291.780 197.600,292.000 197.600 C 292.220 197.600,292.400 197.341,292.400 197.024 C 292.400 196.707,292.220 196.336,292.000 196.200 C 291.780 196.064,291.600 196.323,291.600 196.776 M104.578 200.835 C 104.431 201.074,104.510 201.470,104.755 201.715 C 105.082 202.042,105.200 201.926,105.200 201.280 C 105.200 200.314,104.992 200.165,104.578 200.835 M186.013 201.872 C 186.020 202.052,186.290 202.549,186.613 202.976 C 187.475 204.117,187.465 214.882,186.600 215.600 C 185.604 216.427,185.915 216.800,187.600 216.800 C 189.197 216.800,189.736 216.291,188.600 215.855 C 187.489 215.429,187.754 207.853,188.906 207.098 C 190.472 206.072,192.322 205.857,193.416 206.574 C 194.468 207.263,195.009 216.000,194.000 216.000 C 193.780 216.000,193.600 216.180,193.600 216.400 C 193.600 216.901,196.271 216.932,196.579 216.434 C 196.703 216.233,196.579 215.993,196.302 215.901 C 195.953 215.785,195.739 214.303,195.599 211.035 C 195.345 205.088,194.108 203.974,189.770 205.787 C 188.158 206.460,188.087 206.376,187.913 203.600 C 187.814 202.027,185.953 200.335,186.013 201.872 M290.800 203.267 C 290.800 203.963,290.929 204.405,291.086 204.247 C 291.497 203.836,291.540 202.000,291.138 202.000 C 290.952 202.000,290.800 202.570,290.800 203.267 M102.800 206.224 C 102.800 206.804,102.973 207.140,103.200 207.000 C 103.420 206.864,103.600 206.403,103.600 205.976 C 103.600 205.549,103.420 205.200,103.200 205.200 C 102.980 205.200,102.800 205.661,102.800 206.224 M202.000 205.478 C 201.142 205.784,200.400 206.826,200.400 207.725 C 200.400 208.367,200.502 208.413,201.000 208.000 C 201.330 207.726,201.600 207.268,201.600 206.983 C 201.600 205.514,206.257 205.892,206.634 207.391 C 207.202 209.656,206.781 210.183,204.200 210.431 C 201.057 210.734,200.095 211.286,199.779 212.971 C 199.184 216.145,202.285 217.914,205.516 216.244 C 206.552 215.708,206.740 215.711,207.306 216.277 C 207.697 216.669,208.216 216.802,208.669 216.628 C 209.360 216.362,209.361 216.325,208.700 215.953 C 208.100 215.617,208.000 214.937,208.000 211.209 C 208.000 205.714,206.186 203.982,202.000 205.478 M216.500 205.860 C 215.785 206.212,215.200 206.657,215.200 206.850 C 215.200 207.535,214.490 207.186,214.284 206.400 C 214.159 205.921,213.738 205.600,213.237 205.600 C 212.270 205.600,212.118 206.206,213.000 206.545 C 213.480 206.729,213.600 207.607,213.600 210.938 C 213.600 214.151,213.463 215.216,213.000 215.600 C 212.007 216.424,212.313 216.800,213.976 216.800 C 215.695 216.800,216.471 216.216,215.196 215.883 C 212.637 215.214,214.778 206.773,217.619 206.327 C 218.422 206.202,218.770 205.514,218.130 205.320 C 217.949 205.264,217.215 205.507,216.500 205.860 M222.943 205.575 C 220.224 206.741,219.815 214.329,222.365 216.287 C 224.070 217.596,228.169 216.740,229.167 214.866 C 229.949 213.398,229.295 213.317,228.012 214.723 C 225.906 217.028,222.458 216.197,221.806 213.227 C 221.398 211.371,221.738 211.200,225.824 211.200 L 229.600 211.200 229.598 209.500 C 229.594 206.240,226.141 204.203,222.943 205.575 M227.418 206.982 C 228.031 207.594,228.400 208.422,228.400 209.182 L 228.400 210.400 225.187 210.400 C 221.565 210.400,221.133 210.064,222.171 208.056 C 223.341 205.794,225.739 205.303,227.418 206.982 M290.000 207.424 C 290.000 208.271,290.162 208.747,290.400 208.600 C 290.620 208.464,290.800 207.823,290.800 207.176 C 290.800 206.529,290.620 206.000,290.400 206.000 C 290.180 206.000,290.000 206.641,290.000 207.424 M102.267 207.867 C 101.848 208.285,101.955 210.000,102.400 210.000 C 102.620 210.000,102.800 209.460,102.800 208.800 C 102.800 207.557,102.719 207.415,102.267 207.867 M289.200 211.224 C 289.200 211.937,289.367 212.344,289.600 212.200 C 289.820 212.064,290.000 211.513,290.000 210.976 C 290.000 210.439,289.820 210.000,289.600 210.000 C 289.380 210.000,289.200 210.551,289.200 211.224 M101.467 211.067 C 101.057 211.477,101.151 213.122,101.600 213.400 C 101.838 213.547,102.000 213.071,102.000 212.224 C 102.000 210.762,101.928 210.605,101.467 211.067 M206.794 212.700 C 206.783 215.428,203.081 217.321,201.280 215.520 C 199.436 213.676,201.389 211.200,204.689 211.200 L 206.800 211.200 206.794 212.700 M288.667 213.467 C 288.241 213.892,288.358 215.673,288.794 215.404 C 289.011 215.270,289.151 214.719,289.107 214.180 C 289.016 213.079,289.030 213.103,288.667 213.467 M100.763 214.900 C 100.452 215.750,100.463 217.592,100.782 217.789 C 101.047 217.952,101.200 217.451,101.200 216.424 C 101.200 215.122,100.973 214.329,100.763 214.900 M287.600 217.424 C 287.600 218.004,287.773 218.340,288.000 218.200 C 288.220 218.064,288.400 217.603,288.400 217.176 C 288.400 216.749,288.220 216.400,288.000 216.400 C 287.780 216.400,287.600 216.861,287.600 217.424 M286.800 220.424 C 286.800 220.877,286.980 221.136,287.200 221.000 C 287.420 220.864,287.600 220.493,287.600 220.176 C 287.600 219.859,287.420 219.600,287.200 219.600 C 286.980 219.600,286.800 219.971,286.800 220.424 M286.000 222.824 C 286.000 223.277,286.180 223.536,286.400 223.400 C 286.620 223.264,286.800 222.893,286.800 222.576 C 286.800 222.259,286.620 222.000,286.400 222.000 C 286.180 222.000,286.000 222.371,286.000 222.824 M99.600 223.400 C 99.600 223.730,99.780 224.000,100.000 224.000 C 100.220 224.000,100.400 223.730,100.400 223.400 C 100.400 223.070,100.220 222.800,100.000 222.800 C 99.780 222.800,99.600 223.070,99.600 223.400 M285.200 225.224 C 285.200 225.677,285.380 225.936,285.600 225.800 C 285.820 225.664,286.000 225.293,286.000 224.976 C 286.000 224.659,285.820 224.400,285.600 224.400 C 285.380 224.400,285.200 224.771,285.200 225.224 M99.645 237.181 C 99.598 238.482,99.748 239.644,99.980 239.788 C 100.255 239.958,100.400 239.220,100.400 237.647 C 100.400 234.522,99.756 234.124,99.645 237.181 M278.500 239.398 C 277.931 240.045,277.861 240.400,278.304 240.400 C 278.471 240.400,278.832 240.040,279.107 239.600 C 279.678 238.687,279.251 238.545,278.500 239.398 M100.400 243.576 C 100.400 244.223,100.580 244.864,100.800 245.000 C 101.038 245.147,101.200 244.671,101.200 243.824 C 101.200 243.041,101.020 242.400,100.800 242.400 C 100.580 242.400,100.400 242.929,100.400 243.576 M101.200 246.800 C 101.200 247.240,101.380 247.600,101.600 247.600 C 101.820 247.600,102.000 247.240,102.000 246.800 C 102.000 246.360,101.820 246.000,101.600 246.000 C 101.380 246.000,101.200 246.360,101.200 246.800 M102.000 249.400 C 102.000 249.730,102.180 250.000,102.400 250.000 C 102.620 250.000,102.800 249.730,102.800 249.400 C 102.800 249.070,102.620 248.800,102.400 248.800 C 102.180 248.800,102.000 249.070,102.000 249.400 M269.661 250.655 C 268.925 251.425,268.396 252.130,268.487 252.220 C 268.578 252.311,269.352 251.669,270.207 250.793 C 271.063 249.917,271.591 249.212,271.381 249.227 C 271.172 249.243,270.397 249.885,269.661 250.655 M256.109 260.084 C 255.619 260.321,255.102 260.880,254.960 261.326 C 254.818 261.773,254.364 262.501,253.951 262.945 C 252.002 265.037,253.491 264.574,255.600 262.432 C 258.495 259.492,258.630 258.867,256.109 260.084 M252.100 265.798 C 251.531 266.445,251.461 266.800,251.904 266.800 C 252.071 266.800,252.432 266.440,252.707 266.000 C 253.278 265.087,252.851 264.945,252.100 265.798 M249.700 268.998 C 249.131 269.645,249.061 270.000,249.504 270.000 C 249.671 270.000,250.032 269.640,250.307 269.200 C 250.878 268.287,250.451 268.145,249.700 268.998 M115.600 273.429 C 115.600 273.853,116.836 274.897,117.067 274.667 C 117.192 274.541,117.017 274.160,116.676 273.819 C 116.041 273.184,115.600 273.024,115.600 273.429 M122.800 280.653 C 122.800 281.010,124.931 282.802,125.125 282.608 C 125.302 282.431,123.364 280.400,123.018 280.400 C 122.898 280.400,122.800 280.514,122.800 280.653 M138.320 290.480 C 138.693 290.853,138.907 290.853,139.280 290.480 C 139.653 290.107,139.547 290.000,138.800 290.000 C 138.053 290.000,137.947 290.107,138.320 290.480 M140.539 291.254 C 141.068 291.561,141.402 291.558,141.719 291.241 C 142.040 290.920,141.841 290.803,140.980 290.812 C 139.946 290.823,139.891 290.877,140.539 291.254 M143.000 292.000 C 143.136 292.220,143.867 292.400,144.624 292.400 C 145.381 292.400,146.000 292.220,146.000 292.000 C 146.000 291.780,145.269 291.600,144.376 291.600 C 143.396 291.600,142.851 291.758,143.000 292.000 M148.996 292.794 C 149.278 293.250,151.200 293.179,151.200 292.713 C 151.200 292.541,150.649 292.400,149.976 292.400 C 149.275 292.400,148.857 292.568,148.996 292.794 M161.676 293.100 C 161.768 293.580,162.313 293.867,163.405 294.014 C 164.282 294.132,165.225 294.367,165.500 294.538 C 165.780 294.711,166.000 294.661,166.000 294.424 C 166.000 294.191,165.820 294.000,165.600 294.000 C 165.380 294.000,164.840 293.640,164.400 293.200 C 163.372 292.172,161.484 292.103,161.676 293.100 M182.533 301.466 C 182.679 301.612,183.292 301.785,183.895 301.849 C 184.710 301.936,184.839 301.869,184.396 301.589 C 183.722 301.163,182.124 301.057,182.533 301.466 " stroke="none" fill="#f6f6fb" fill-rule="evenodd"></path><path id="path4" d="M212.400 126.000 L 211.000 126.295 212.400 126.300 C 213.170 126.303,214.340 126.168,215.000 126.000 L 216.200 125.695 215.000 125.700 C 214.340 125.703,213.170 125.838,212.400 126.000 M234.400 126.020 C 236.843 126.455,238.730 126.440,237.000 126.000 C 236.340 125.832,235.080 125.696,234.200 125.697 L 232.600 125.700 234.400 126.020 M204.600 126.800 C 203.522 127.074,203.502 127.106,204.400 127.113 C 204.950 127.117,205.850 126.976,206.400 126.800 C 207.744 126.369,206.292 126.369,204.600 126.800 M240.000 126.800 C 241.368 127.238,242.419 127.238,241.400 126.800 C 240.960 126.611,240.240 126.462,239.800 126.468 C 239.157 126.477,239.196 126.543,240.000 126.800 M200.600 127.600 C 200.096 127.817,200.022 127.944,200.400 127.944 C 200.730 127.944,201.360 127.789,201.800 127.600 C 202.304 127.383,202.378 127.256,202.000 127.256 C 201.670 127.256,201.040 127.411,200.600 127.600 M244.200 127.600 C 244.640 127.789,245.270 127.944,245.600 127.944 C 245.978 127.944,245.904 127.817,245.400 127.600 C 244.960 127.411,244.330 127.256,244.000 127.256 C 243.622 127.256,243.696 127.383,244.200 127.600 M197.000 128.400 C 196.496 128.617,196.422 128.744,196.800 128.744 C 197.130 128.744,197.760 128.589,198.200 128.400 C 198.704 128.183,198.778 128.056,198.400 128.056 C 198.070 128.056,197.440 128.211,197.000 128.400 M193.400 129.200 C 192.896 129.417,192.822 129.544,193.200 129.544 C 193.530 129.544,194.160 129.389,194.600 129.200 C 195.104 128.983,195.178 128.856,194.800 128.856 C 194.470 128.856,193.840 129.011,193.400 129.200 M260.673 132.660 C 260.346 132.987,261.681 133.997,262.099 133.739 C 262.268 133.635,262.148 133.290,261.832 132.974 C 261.185 132.328,261.044 132.290,260.673 132.660 M157.900 143.029 C 156.405 143.840,156.496 144.178,158.000 143.400 C 158.660 143.059,159.200 142.694,159.200 142.590 C 159.200 142.332,159.157 142.347,157.900 143.029 M186.772 179.834 C 186.226 180.492,186.608 181.603,187.482 181.894 C 188.187 182.129,189.144 180.871,188.918 180.007 C 188.666 179.043,187.506 178.949,186.772 179.834 M188.400 180.624 C 188.400 180.941,188.130 181.200,187.800 181.200 C 187.198 181.200,186.978 180.356,187.456 179.878 C 187.829 179.504,188.400 179.955,188.400 180.624 M225.384 180.025 C 225.240 180.259,225.409 180.768,225.761 181.157 C 226.284 181.735,226.400 182.905,226.400 187.600 C 226.400 192.295,226.284 193.465,225.761 194.043 C 224.831 195.071,225.401 195.600,227.436 195.600 C 229.310 195.600,230.161 194.801,229.253 193.893 C 228.953 193.593,228.800 191.263,228.800 187.000 C 228.800 182.524,228.654 180.414,228.320 180.080 C 227.726 179.486,225.741 179.449,225.384 180.025 M227.910 187.116 C 227.999 192.774,228.126 194.074,228.610 194.259 C 229.737 194.692,229.191 195.200,227.600 195.200 C 225.915 195.200,225.604 194.827,226.600 194.000 C 227.084 193.599,227.200 192.358,227.200 187.600 C 227.200 182.842,227.084 181.601,226.600 181.200 C 225.722 180.471,225.867 179.926,226.900 180.072 C 227.789 180.198,227.801 180.286,227.910 187.116 M167.604 182.446 C 163.252 183.189,160.898 186.001,160.507 190.926 C 159.995 197.375,162.193 199.644,170.690 201.444 C 178.124 203.019,178.699 203.588,178.458 209.140 C 178.194 215.236,165.025 214.801,163.792 208.655 C 163.311 206.258,163.157 206.000,162.206 206.000 C 160.057 206.000,160.000 206.136,160.000 211.235 C 160.000 215.967,160.004 215.986,160.999 216.236 C 162.438 216.597,163.200 216.173,163.200 215.013 C 163.200 213.755,163.146 213.751,165.473 215.196 C 171.234 218.773,179.625 217.121,181.736 211.995 C 184.960 204.167,181.748 199.782,171.223 197.641 C 165.256 196.427,163.971 195.138,164.546 190.943 C 165.433 184.473,174.922 183.395,178.024 189.413 C 179.097 191.493,180.295 192.117,181.422 191.182 C 182.243 190.500,182.243 183.900,181.422 183.218 C 180.512 182.463,179.020 182.862,178.872 183.900 C 178.738 184.844,177.842 185.116,177.372 184.355 C 176.438 182.843,171.232 181.826,167.604 182.446 M174.501 183.371 C 175.326 183.665,176.619 184.377,177.374 184.953 C 179.101 186.270,179.124 186.267,179.275 184.700 C 179.371 183.704,179.610 183.370,180.300 183.272 C 181.182 183.147,181.200 183.224,181.200 187.172 C 181.200 192.145,180.481 192.625,178.442 189.012 C 175.706 184.164,166.507 183.697,164.581 188.307 C 162.432 193.450,164.472 196.967,170.200 197.996 C 180.056 199.767,182.383 201.890,181.881 208.653 C 181.474 214.127,179.002 216.179,172.800 216.192 C 168.188 216.202,167.377 215.993,165.020 214.195 C 163.120 212.744,162.961 212.786,162.720 214.800 C 162.638 215.486,162.317 215.840,161.700 215.928 C 160.809 216.054,160.800 216.006,160.800 211.228 L 160.800 206.400 161.782 206.400 C 162.600 206.400,162.811 206.650,163.045 207.900 C 164.275 214.474,175.544 216.568,178.499 210.772 C 180.943 205.979,178.511 202.480,171.817 201.164 C 164.026 199.631,162.040 198.361,161.193 194.368 C 159.429 186.054,166.242 180.423,174.501 183.371 M196.430 183.426 C 195.494 183.832,194.930 183.890,194.650 183.610 C 193.872 182.832,192.000 183.116,192.000 184.013 C 192.000 184.459,192.270 184.929,192.600 185.055 C 193.503 185.402,193.462 192.648,192.551 193.654 C 191.491 194.825,192.133 195.600,194.164 195.600 C 196.269 195.600,196.666 195.177,195.800 193.857 C 195.317 193.119,195.195 192.055,195.284 189.345 L 195.400 185.800 196.797 185.349 C 199.423 184.500,199.785 184.969,199.915 189.386 C 199.989 191.895,199.866 193.479,199.570 193.836 C 198.712 194.870,199.454 195.600,201.364 195.600 C 203.399 195.600,203.969 195.071,203.039 194.043 C 201.977 192.870,202.124 186.176,203.225 185.587 C 204.410 184.952,206.416 184.981,206.832 185.638 C 207.472 186.649,207.280 193.436,206.595 194.004 C 205.660 194.780,206.620 195.600,208.462 195.600 C 210.115 195.600,210.909 194.749,210.053 193.893 C 209.784 193.624,209.600 192.005,209.600 189.907 C 209.600 183.853,207.802 181.851,203.754 183.396 C 202.111 184.024,201.851 184.027,200.379 183.438 C 198.453 182.668,198.179 182.667,196.430 183.426 M216.909 183.392 C 216.141 183.726,215.524 183.801,215.386 183.577 C 214.916 182.817,212.800 183.144,212.800 183.976 C 212.800 184.403,212.980 184.864,213.200 185.000 C 213.781 185.359,213.724 197.412,213.137 198.352 C 212.132 199.962,214.217 201.059,216.567 200.157 C 217.370 199.849,217.392 198.559,216.600 198.255 C 214.780 197.557,215.941 195.644,218.137 195.723 C 222.073 195.865,223.600 194.105,223.600 189.427 C 223.600 184.065,220.921 181.649,216.909 183.392 M185.600 183.988 C 185.600 184.449,185.870 184.929,186.200 185.055 C 187.103 185.402,187.062 192.648,186.151 193.654 C 185.091 194.825,185.733 195.600,187.764 195.600 C 189.744 195.600,190.346 195.098,189.534 194.123 C 189.178 193.695,188.933 191.799,188.800 188.441 L 188.600 183.400 187.100 183.276 C 185.805 183.169,185.600 183.266,185.600 183.988 M230.537 183.819 C 230.407 184.160,230.571 184.655,230.903 184.919 C 233.810 187.235,235.667 197.538,233.338 198.424 C 232.214 198.851,232.106 199.853,233.147 200.183 C 235.160 200.822,235.738 200.008,238.576 192.535 C 240.067 188.611,241.560 185.184,241.893 184.919 C 243.002 184.041,242.180 183.200,240.213 183.200 C 238.387 183.200,237.773 183.965,238.753 185.020 C 239.093 185.387,236.864 192.000,236.400 192.000 C 235.936 192.000,233.707 185.387,234.047 185.020 C 234.241 184.811,234.400 184.316,234.400 183.920 C 234.400 182.949,230.906 182.858,230.537 183.819 M200.766 184.262 C 201.533 184.799,201.857 184.832,202.486 184.439 C 206.575 181.885,208.800 183.708,208.800 189.613 C 208.800 193.166,208.917 194.070,209.400 194.255 C 210.536 194.691,209.997 195.200,208.400 195.200 C 206.648 195.200,206.500 195.043,207.400 194.143 C 208.134 193.409,208.243 187.371,207.550 185.850 C 206.746 184.086,202.968 184.192,201.997 186.006 C 201.338 187.237,201.495 193.415,202.200 194.000 C 203.196 194.827,202.885 195.200,201.200 195.200 C 199.603 195.200,199.064 194.691,200.200 194.255 C 201.254 193.851,201.049 186.249,199.955 185.155 C 198.968 184.168,196.804 184.310,195.550 185.445 C 194.709 186.206,194.409 193.711,195.200 194.200 C 196.028 194.712,195.551 195.200,194.224 195.200 C 192.750 195.200,192.017 194.632,193.002 194.254 C 193.778 193.957,193.883 185.243,193.120 184.480 C 192.747 184.107,192.828 184.000,193.487 184.000 C 193.952 184.000,194.396 184.189,194.473 184.420 C 194.564 184.693,195.102 184.628,196.007 184.236 C 197.846 183.438,199.604 183.447,200.766 184.262 M221.227 184.014 C 223.836 185.411,223.798 193.410,221.176 194.813 C 220.722 195.056,219.237 195.208,217.875 195.151 L 215.400 195.048 215.274 196.563 C 215.189 197.577,215.375 198.330,215.836 198.839 C 216.502 199.575,216.470 199.600,214.839 199.600 C 213.178 199.600,213.163 199.588,213.777 198.711 C 214.680 197.422,214.700 185.290,213.800 184.945 C 212.872 184.589,213.091 184.000,214.151 184.000 C 215.257 184.000,216.521 185.222,215.700 185.498 C 214.842 185.787,215.019 193.174,215.900 193.843 C 218.159 195.558,221.399 194.112,221.798 191.212 C 222.438 186.560,221.345 184.577,218.182 184.652 C 215.804 184.709,215.520 184.567,216.900 184.012 C 218.139 183.515,220.295 183.516,221.227 184.014 M188.314 188.994 C 188.376 191.630,188.601 193.961,188.814 194.174 C 189.521 194.881,189.214 195.200,187.824 195.200 C 186.350 195.200,185.617 194.632,186.602 194.254 C 187.394 193.951,187.481 185.249,186.700 184.446 C 186.296 184.031,186.392 183.958,187.200 184.066 C 188.196 184.199,188.200 184.218,188.314 188.994 M233.413 184.758 C 233.203 185.419,233.571 186.758,234.797 189.800 C 234.974 190.240,235.339 191.185,235.608 191.900 C 236.205 193.488,236.577 193.538,237.114 192.100 C 237.339 191.495,237.998 189.767,238.576 188.260 C 239.155 186.753,239.520 185.178,239.387 184.760 C 239.185 184.122,239.350 184.000,240.422 184.000 C 241.381 184.000,241.602 184.124,241.313 184.500 C 241.102 184.775,240.378 186.440,239.705 188.200 C 235.439 199.352,235.419 199.392,234.278 199.527 C 232.973 199.680,232.864 199.139,234.090 198.595 C 235.931 197.777,235.905 195.200,234.008 190.600 C 233.826 190.160,233.271 188.720,232.774 187.400 C 232.276 186.080,231.697 184.775,231.486 184.500 C 231.197 184.124,231.419 184.000,232.378 184.000 C 233.448 184.000,233.615 184.122,233.413 184.758 M220.545 185.610 C 221.151 186.172,221.577 189.491,221.272 191.275 C 220.912 193.388,219.478 194.309,217.453 193.730 L 216.200 193.372 216.084 189.846 C 216.012 187.675,216.139 186.115,216.413 185.784 C 217.184 184.856,219.621 184.753,220.545 185.610 M185.384 201.625 C 185.240 201.859,185.409 202.368,185.761 202.757 C 186.284 203.335,186.400 204.505,186.400 209.200 C 186.400 213.895,186.284 215.065,185.761 215.643 C 184.831 216.671,185.401 217.200,187.436 217.200 C 189.310 217.200,190.161 216.401,189.253 215.493 C 188.381 214.621,188.668 207.699,189.596 207.202 C 190.797 206.560,193.215 206.579,193.629 207.234 C 194.279 208.260,194.086 215.192,193.400 215.455 C 191.789 216.074,193.086 217.200,195.409 217.200 C 197.063 217.200,197.439 216.677,196.623 215.512 C 196.159 214.849,196.000 213.593,196.000 210.586 C 196.000 205.234,194.614 203.689,190.803 204.795 C 188.817 205.371,188.800 205.361,188.800 203.680 C 188.800 201.541,186.348 200.066,185.384 201.625 M187.913 203.600 C 188.087 206.376,188.158 206.460,189.770 205.787 C 194.108 203.974,195.345 205.088,195.599 211.035 C 195.739 214.303,195.953 215.785,196.302 215.901 C 196.579 215.993,196.703 216.233,196.579 216.434 C 196.271 216.932,193.600 216.901,193.600 216.400 C 193.600 216.180,193.780 216.000,194.000 216.000 C 195.009 216.000,194.468 207.263,193.416 206.574 C 192.322 205.857,190.472 206.072,188.906 207.098 C 187.754 207.853,187.489 215.429,188.600 215.855 C 189.736 216.291,189.197 216.800,187.600 216.800 C 185.915 216.800,185.604 216.427,186.600 215.600 C 187.465 214.882,187.475 204.117,186.613 202.976 C 185.784 201.880,185.862 201.525,186.900 201.672 C 187.660 201.780,187.817 202.079,187.913 203.600 M202.105 204.846 C 199.957 205.467,198.856 208.800,200.799 208.800 C 201.218 208.800,201.612 208.406,201.752 207.847 C 202.184 206.129,205.816 206.128,206.247 207.847 C 206.658 209.484,206.185 210.000,204.272 210.000 C 200.758 210.000,199.200 211.092,199.200 213.555 C 199.200 216.746,201.501 218.183,204.794 217.047 C 205.946 216.650,206.727 216.567,206.974 216.814 C 208.251 218.091,210.253 216.585,209.049 215.254 C 208.549 214.702,208.400 213.688,208.400 210.842 C 208.400 205.222,206.633 203.538,202.105 204.846 M223.237 204.910 C 218.747 206.526,218.896 215.600,223.438 217.124 C 226.367 218.107,230.253 216.181,229.928 213.907 C 229.733 212.537,228.546 212.557,227.830 213.942 C 226.737 216.056,223.108 215.968,222.568 213.815 C 222.070 211.830,222.467 211.600,226.400 211.600 C 230.625 211.600,230.798 211.441,229.952 208.317 C 229.105 205.193,226.344 203.792,223.237 204.910 M212.000 205.576 C 212.000 206.003,212.180 206.464,212.400 206.600 C 213.106 207.037,212.900 214.826,212.161 215.643 C 211.219 216.684,211.807 217.201,213.924 217.194 C 216.450 217.186,217.329 216.596,216.100 215.734 C 215.291 215.166,215.200 214.771,215.200 211.813 C 215.200 208.186,215.512 207.607,217.926 206.766 C 218.756 206.477,219.200 206.056,219.200 205.561 C 219.200 204.521,217.204 204.537,215.944 205.587 C 214.795 206.544,215.061 206.607,216.733 205.773 C 217.424 205.429,218.175 205.261,218.401 205.401 C 218.991 205.765,218.486 206.400,217.607 206.400 C 214.890 206.400,212.648 215.217,215.196 215.883 C 216.471 216.216,215.695 216.800,213.976 216.800 C 212.313 216.800,212.007 216.424,213.000 215.600 C 213.463 215.216,213.600 214.151,213.600 210.938 C 213.600 207.607,213.480 206.729,213.000 206.545 C 212.118 206.206,212.270 205.600,213.237 205.600 C 213.738 205.600,214.159 205.921,214.284 206.400 C 214.399 206.840,214.652 207.200,214.847 207.200 C 215.306 207.200,215.293 207.042,214.736 205.819 C 214.143 204.518,212.000 204.328,212.000 205.576 M206.946 206.029 C 207.969 206.834,208.000 206.985,208.000 211.209 C 208.000 214.937,208.100 215.617,208.700 215.953 C 209.361 216.325,209.360 216.362,208.669 216.628 C 208.216 216.802,207.697 216.669,207.306 216.277 C 206.740 215.711,206.552 215.708,205.516 216.244 C 202.285 217.914,199.184 216.145,199.779 212.971 C 200.095 211.286,201.057 210.734,204.200 210.431 C 206.781 210.183,207.202 209.656,206.634 207.391 C 206.257 205.892,201.600 205.514,201.600 206.983 C 201.600 207.268,201.330 207.726,201.000 208.000 C 200.223 208.645,200.142 207.278,200.900 206.322 C 201.988 204.950,205.366 204.786,206.946 206.029 M228.675 206.649 C 229.310 207.443,229.597 208.327,229.598 209.500 L 229.600 211.200 225.824 211.200 C 221.738 211.200,221.398 211.371,221.806 213.227 C 222.458 216.197,225.906 217.028,228.012 214.723 C 229.295 213.317,229.949 213.398,229.167 214.866 C 227.724 217.574,222.696 217.612,221.265 214.926 C 220.544 213.573,220.668 207.967,221.443 206.860 C 222.894 204.789,227.088 204.666,228.675 206.649 M223.500 206.432 C 222.584 206.966,221.483 209.118,221.759 209.836 C 221.920 210.257,222.792 210.400,225.187 210.400 L 228.400 210.400 228.400 209.182 C 228.400 206.823,225.563 205.231,223.500 206.432 M227.317 207.700 C 228.606 209.193,228.064 209.787,225.291 209.919 C 222.515 210.052,221.923 209.564,222.725 207.805 C 223.442 206.231,225.998 206.172,227.317 207.700 M201.689 211.823 C 199.768 213.168,200.729 216.000,203.106 216.000 C 205.665 216.000,206.784 214.998,206.794 212.700 L 206.800 211.200 204.689 211.200 C 203.426 211.200,202.221 211.450,201.689 211.823 M206.256 212.201 C 206.967 214.056,204.536 216.078,202.407 215.402 C 200.305 214.735,201.134 212.142,203.530 211.890 C 204.339 211.804,205.231 211.704,205.513 211.667 C 205.794 211.630,206.129 211.870,206.256 212.201 M254.800 260.200 C 254.259 260.851,254.389 260.933,255.367 260.557 C 255.715 260.424,256.000 260.154,256.000 259.957 C 256.000 259.404,255.352 259.535,254.800 260.200 M235.600 266.800 C 234.805 267.314,235.804 267.314,237.000 266.800 L 237.800 266.456 237.000 266.434 C 236.560 266.422,235.930 266.587,235.600 266.800 M231.800 267.600 C 230.781 268.038,231.832 268.038,233.200 267.600 C 234.004 267.343,234.043 267.277,233.400 267.268 C 232.960 267.262,232.240 267.411,231.800 267.600 M228.200 268.400 C 227.696 268.617,227.622 268.744,228.000 268.744 C 228.330 268.744,228.960 268.589,229.400 268.400 C 229.904 268.183,229.978 268.056,229.600 268.056 C 229.270 268.056,228.640 268.211,228.200 268.400 M224.200 269.200 C 223.181 269.638,224.232 269.638,225.600 269.200 C 226.404 268.943,226.443 268.877,225.800 268.868 C 225.360 268.862,224.640 269.011,224.200 269.200 M219.600 270.000 C 218.808 270.254,218.767 270.320,219.400 270.320 C 219.840 270.320,220.650 270.176,221.200 270.000 C 221.992 269.746,222.033 269.680,221.400 269.680 C 220.960 269.680,220.150 269.824,219.600 270.000 M215.400 270.800 C 214.896 271.017,214.822 271.144,215.200 271.144 C 215.530 271.144,216.160 270.989,216.600 270.800 C 217.104 270.583,217.178 270.456,216.800 270.456 C 216.470 270.456,215.840 270.611,215.400 270.800 M211.200 271.600 C 210.396 271.857,210.357 271.923,211.000 271.932 C 211.440 271.938,212.160 271.789,212.600 271.600 C 213.619 271.162,212.568 271.162,211.200 271.600 M205.800 272.400 L 205.000 272.744 205.800 272.732 C 206.240 272.726,207.050 272.576,207.600 272.400 L 208.600 272.080 207.600 272.068 C 207.050 272.062,206.240 272.211,205.800 272.400 M201.800 273.200 C 201.296 273.417,201.222 273.544,201.600 273.544 C 201.930 273.544,202.560 273.389,203.000 273.200 C 203.504 272.983,203.578 272.856,203.200 272.856 C 202.870 272.856,202.240 273.011,201.800 273.200 M198.200 274.000 C 197.696 274.217,197.622 274.344,198.000 274.344 C 198.330 274.344,198.960 274.189,199.400 274.000 C 199.904 273.783,199.978 273.656,199.600 273.656 C 199.270 273.656,198.640 273.811,198.200 274.000 M194.000 274.800 C 193.205 275.314,194.204 275.314,195.400 274.800 L 196.200 274.456 195.400 274.434 C 194.960 274.422,194.330 274.587,194.000 274.800 M190.600 275.600 C 190.096 275.817,190.022 275.944,190.400 275.944 C 190.730 275.944,191.360 275.789,191.800 275.600 C 192.304 275.383,192.378 275.256,192.000 275.256 C 191.670 275.256,191.040 275.411,190.600 275.600 M180.544 279.969 C 179.853 280.390,179.165 280.933,179.016 281.174 C 178.792 281.537,181.375 279.958,181.956 279.377 C 182.347 278.987,181.733 279.244,180.544 279.969 M176.799 282.976 C 176.029 283.697,174.772 284.988,174.005 285.844 C 173.238 286.700,173.863 286.230,175.394 284.800 C 176.926 283.370,178.259 282.155,178.356 282.100 C 178.454 282.045,178.458 281.924,178.365 281.832 C 178.273 281.740,177.568 282.254,176.799 282.976 M168.881 289.772 C 166.882 291.185,166.808 291.418,168.697 290.355 C 169.630 289.830,170.395 289.265,170.397 289.100 C 170.401 288.699,170.394 288.702,168.881 289.772 M162.200 292.000 C 162.057 292.231,162.428 292.397,163.076 292.394 C 163.949 292.389,164.066 292.301,163.600 292.000 C 162.831 291.503,162.507 291.503,162.200 292.000 " stroke="none" fill="#cac6ef" fill-rule="evenodd"></path></g></svg>